<svg xmlns="http://www.w3.org/2000/svg" width="1024" height="1024" viewBox="0 0 1024 1024" version="1.1"><path d="M 500.163 6.594 C 443.612 16.793, 393.760 33.495, 364.658 51.995 L 359.816 55.072 369.803 65.441 C 385.428 81.664, 398.963 99.992, 421.539 135.500 C 427.484 144.850, 432.401 152.594, 432.467 152.709 C 432.532 152.825, 440.666 153.860, 450.543 155.011 C 530.697 164.349, 574.888 174.172, 630.786 195.074 L 637.073 197.425 691.271 143.226 L 745.470 89.028 738.985 82.397 C 729.810 73.016, 706.800 52.569, 692.359 40.965 L 680.090 31.107 665.795 26.484 C 609.128 8.159, 538.509 -0.321, 500.163 6.594 M 465.500 6.132 C 394.519 13.857, 323.946 37.278, 265.317 72.570 L 260.133 75.690 266.368 81.869 L 272.603 88.049 284.357 82.505 C 299.587 75.321, 316.793 68.086, 335.500 60.999 C 346.406 56.868, 353.093 53.606, 360 49.046 C 386.093 31.822, 426.105 17.053, 477.500 5.675 C 480.825 4.939, 474.119 5.194, 465.500 6.132 M 699.036 39.377 C 699.841 40.135, 705.450 44.949, 711.500 50.076 C 717.550 55.203, 728.474 65.247, 735.776 72.397 L 749.053 85.398 756.526 77.974 C 760.637 73.891, 763.996 70.314, 763.992 70.025 C 763.962 68.152, 702.017 38, 698.197 38 C 697.853 38, 698.230 38.620, 699.036 39.377 M 133.256 134.250 L 64.017 203.500 147.259 287.016 C 193.041 332.950, 237.365 377.272, 245.755 385.509 L 261.010 400.485 330.005 331.495 C 367.952 293.551, 399 262.155, 399 261.726 C 399 260.820, 204.001 65, 203.099 65 C 202.766 65, 171.337 96.162, 133.256 134.250 M 409.568 180.153 L 386.850 202.344 448.172 263.672 L 509.494 325 570.747 263.753 C 604.436 230.067, 632 202.221, 632 201.872 C 632 200.977, 607.705 191.879, 594 187.643 C 555.745 175.816, 510.359 167.008, 457 161.054 C 446.825 159.919, 437.102 158.759, 435.393 158.476 C 432.470 157.993, 430.934 159.283, 409.568 180.153 M 74.658 279.685 C 52.027 324.847, 35.208 380.642, 28.593 432.500 C 26.942 445.446, 25.027 466.455, 25.010 471.807 C 25 475.071, 25.055 475.111, 29.157 474.807 L 33.314 474.500 35.673 465.500 C 50.443 409.138, 81.089 350.506, 115.033 313.667 L 121.329 306.835 101.251 286.758 L 81.174 266.681 74.658 279.685 M 944.213 282.814 C 938.005 288.691, 932.942 293.820, 932.963 294.211 C 932.983 294.603, 934.913 295.413, 937.250 296.011 C 948.705 298.943, 965.059 307.129, 971.746 313.276 C 972.981 314.412, 974.229 315.105, 974.518 314.816 C 975.243 314.091, 967.435 295.742, 960.901 282.814 L 955.500 272.128 944.213 282.814 M 934 302.789 C 934 304.647, 917.797 379.929, 914.979 391.164 C 910.619 408.547, 906.269 422.971, 902.459 432.674 L 899.188 441.007 902.489 448.834 C 917.882 485.332, 927.607 538.562, 932.481 613 C 933.327 625.925, 934.271 639.264, 934.578 642.641 L 935.136 648.783 944.084 652.535 C 949.006 654.599, 958.536 659.568, 965.264 663.577 C 974.243 668.929, 977.687 670.523, 978.218 669.574 C 979.946 666.487, 990.174 634.335, 993.353 622 C 1004.542 578.578, 1009.314 540.904, 1009.314 496 C 1009.314 443.899, 1002.690 399.691, 987.363 349.500 C 981.931 331.712, 980.540 328.811, 974.833 323.369 C 965.092 314.080, 956.123 308.625, 943.575 304.356 C 936.261 301.868, 934 301.498, 934 302.789 M 115.269 321.250 C 104.111 334.261, 93.041 349.461, 84.498 363.500 C 65.699 394.396, 48.023 436.897, 39.357 472.038 L 36.725 482.711 39.435 498.606 C 51.479 569.240, 68.744 620.043, 93.389 657.365 C 101.329 669.388, 105.513 673.376, 118.542 681.336 C 125.221 685.417, 139.651 691.969, 142.002 691.988 C 142.828 691.995, 184.224 651.278, 233.993 601.507 L 324.482 511.014 252.988 439.257 C 213.667 399.791, 168.904 354.788, 153.514 339.250 C 138.125 323.712, 125.203 311, 124.797 311 C 124.392 311, 120.104 315.613, 115.269 321.250 M 739.999 465.501 L 694.506 511.002 791.501 608.001 C 844.848 661.350, 888.722 704.986, 888.998 704.969 C 889.274 704.952, 898.388 692.931, 909.250 678.254 L 929 651.570 928.997 645.535 C 928.992 636.124, 926.196 596.590, 923.973 574.500 C 919.504 530.092, 913.558 498.325, 904.318 469.500 C 900.189 456.617, 895.124 444, 894.082 444 C 888.750 444, 849.909 435.474, 811.781 425.935 C 798.735 422.671, 787.483 420, 786.777 420 C 786.070 420, 765.020 440.475, 739.999 465.501 M 98.313 678.740 C 96.262 690.748, 98.550 729.884, 101.474 732.807 C 102.040 733.373, 138 698.115, 138 696.993 C 138 696.703, 135.261 695.377, 131.913 694.048 C 124.307 691.027, 112.270 684.048, 104.813 678.336 L 99.126 673.980 98.313 678.740 M 589 789.052 C 561.359 807.654, 533.524 820.116, 473 840.986 C 437.296 853.298, 413.712 861.982, 412.288 863.342 C 410.460 865.088, 408.029 878.037, 407.002 891.500 C 406.018 904.400, 407.039 926.826, 409.521 946.836 C 410.887 957.848, 411.109 958.527, 414.467 961.967 C 423.581 971.299, 444.077 979.829, 471 985.493 C 490.492 989.594, 538.437 989.582, 573.500 985.467 C 618.437 980.193, 662.552 968.851, 704.434 951.804 C 718.238 946.185, 745 933.332, 745 932.321 C 745 931.453, 597.859 783.998, 596.997 784.003 C 596.724 784.004, 593.125 786.276, 589 789.052 M 377.225 844.806 C 377.376 845.331, 372.325 851.296, 366 858.060 C 359.675 864.824, 354.725 870.453, 355 870.568 C 355.657 870.844, 349.591 877.327, 319.799 908.190 C 306.159 922.319, 295 934.274, 295 934.756 C 295 935.238, 300.288 938.155, 306.750 941.239 C 337.989 956.144, 373 962.981, 395.888 958.647 C 400.501 957.773, 404.462 956.872, 404.690 956.644 C 404.918 956.416, 404.387 949.765, 403.511 941.865 C 400.180 911.836, 400.521 886.436, 404.484 869.394 C 405.562 864.760, 405.592 863.353, 404.625 862.811 C 403.948 862.432, 398.018 858.356, 391.447 853.754 C 377.279 843.832, 376.871 843.575, 377.225 844.806" stroke="none" fill="#e1dadc" fill-rule="evenodd"/><path d="M 453 2.106 C 386.128 10.946, 324.458 31.950, 265.640 65.919 L 257.231 70.775 245.472 58.888 C 239.004 52.349, 233.250 47, 232.684 47 C 232.118 47, 225.198 40.598, 217.306 32.773 L 202.957 18.547 110.487 111.013 L 18.017 203.479 26.851 212.490 C 37.299 223.145, 40 226.585, 40 229.234 C 40 233.687, 44.183 239.272, 58.343 253.720 L 73.258 268.941 66.171 284.268 C 32.778 356.484, 17.509 429.041, 19.300 507 C 20.697 567.808, 31.855 623.609, 53.693 679 C 60.135 695.340, 75.095 726.930, 82.850 740.571 L 86.870 747.641 52.442 782.058 L 18.014 816.475 26.337 824.987 C 36.994 835.888, 40 839.669, 40 842.176 C 40 843.288, 40.748 845.841, 41.663 847.849 C 42.710 850.148, 66.537 874.827, 106.012 914.500 C 140.489 949.150, 169.696 978.962, 170.917 980.750 C 172.138 982.538, 173.640 984, 174.255 984 C 174.871 984, 182.603 991.138, 191.437 999.862 C 200.606 1008.917, 209.431 1016.726, 212 1018.058 C 217.858 1021.097, 226.816 1021.316, 232.500 1018.561 C 234.709 1017.490, 243.914 1009.320, 253.061 1000.311 L 269.622 984 342.284 984 L 414.946 984 432.291 986.964 C 464.700 992.503, 477.034 993.447, 517 993.447 C 556.913 993.447, 568.801 992.540, 601.818 986.974 L 619.462 984 703.418 984 L 787.375 984 803.437 999.862 C 812.606 1008.917, 821.431 1016.726, 824 1018.058 C 829.858 1021.097, 838.816 1021.316, 844.500 1018.561 C 846.709 1017.490, 855.914 1009.320, 865.061 1000.311 L 881.622 984 899.857 984 C 917.883 984, 918.119 983.972, 920.545 981.545 C 925.698 976.393, 922.682 969.731, 913.122 965.147 C 909.827 963.568, 907.374 961.702, 907.165 960.616 C 906.909 959.290, 921.728 943.824, 959.847 905.635 C 1014.352 851.030, 1016.921 848.106, 1016.978 840.616 C 1017.043 832.022, 1016.503 831.355, 978.356 792.997 L 942.054 756.494 948.661 744.997 C 979.886 690.665, 1001.086 629.567, 1009.903 568.498 C 1013.379 544.424, 1014.088 535.315, 1014.692 506.952 C 1015.974 446.720, 1008.202 394.544, 989.642 338.776 C 984.270 322.637, 972.058 291.456, 968.975 286.007 C 968.327 284.862, 973.504 279.081, 990.520 261.951 C 1017.325 234.965, 1019.080 232.099, 1015.838 220.616 C 1014.832 217.053, 1003.777 205.559, 933.588 135.091 C 888.989 90.316, 850.529 52.066, 848.120 50.091 C 845.711 48.116, 837.266 40.212, 829.352 32.526 L 814.963 18.553 791.724 41.776 C 778.942 54.549, 768.129 65, 767.694 65 C 767.260 65, 761.531 62.029, 754.963 58.398 C 703.946 30.192, 639.973 9.567, 580.188 2.051 C 565.640 0.222, 558.668 0.010, 515.688 0.095 C 474.279 0.176, 465.460 0.459, 453 2.106 M 500.163 6.594 C 443.612 16.793, 393.760 33.495, 364.658 51.995 L 359.816 55.072 369.803 65.441 C 385.428 81.664, 398.963 99.992, 421.539 135.500 C 427.484 144.850, 432.401 152.594, 432.467 152.709 C 432.532 152.825, 440.666 153.860, 450.543 155.011 C 530.697 164.349, 574.888 174.172, 630.786 195.074 L 637.073 197.425 691.271 143.226 L 745.470 89.028 738.985 82.397 C 729.810 73.016, 706.800 52.569, 692.359 40.965 L 680.090 31.107 665.795 26.484 C 609.128 8.159, 538.509 -0.321, 500.163 6.594 M 465.500 6.132 C 394.519 13.857, 323.946 37.278, 265.317 72.570 L 260.133 75.690 266.368 81.869 L 272.603 88.049 284.357 82.505 C 299.587 75.321, 316.793 68.086, 335.500 60.999 C 346.406 56.868, 353.093 53.606, 360 49.046 C 386.093 31.822, 426.105 17.053, 477.500 5.675 C 480.825 4.939, 474.119 5.194, 465.500 6.132 M 699.036 39.377 C 699.841 40.135, 705.450 44.949, 711.500 50.076 C 717.550 55.203, 728.474 65.247, 735.776 72.397 L 749.053 85.398 756.526 77.974 C 760.637 73.891, 763.996 70.314, 763.992 70.025 C 763.962 68.152, 702.017 38, 698.197 38 C 697.853 38, 698.230 38.620, 699.036 39.377 M 133.256 134.250 L 64.017 203.500 147.259 287.016 C 193.041 332.950, 237.365 377.272, 245.755 385.509 L 261.010 400.485 330.005 331.495 C 367.952 293.551, 399 262.155, 399 261.726 C 399 260.820, 204.001 65, 203.099 65 C 202.766 65, 171.337 96.162, 133.256 134.250 M 409.568 180.153 L 386.850 202.344 448.172 263.672 L 509.494 325 570.747 263.753 C 604.436 230.067, 632 202.221, 632 201.872 C 632 200.977, 607.705 191.879, 594 187.643 C 555.745 175.816, 510.359 167.008, 457 161.054 C 446.825 159.919, 437.102 158.759, 435.393 158.476 C 432.470 157.993, 430.934 159.283, 409.568 180.153 M 74.658 279.685 C 52.027 324.847, 35.208 380.642, 28.593 432.500 C 26.942 445.446, 25.027 466.455, 25.010 471.807 C 25 475.071, 25.055 475.111, 29.157 474.807 L 33.314 474.500 35.673 465.500 C 50.443 409.138, 81.089 350.506, 115.033 313.667 L 121.329 306.835 101.251 286.758 L 81.174 266.681 74.658 279.685 M 944.213 282.814 C 938.005 288.691, 932.942 293.820, 932.963 294.211 C 932.983 294.603, 934.913 295.413, 937.250 296.011 C 948.705 298.943, 965.059 307.129, 971.746 313.276 C 972.981 314.412, 974.229 315.105, 974.518 314.816 C 975.243 314.091, 967.435 295.742, 960.901 282.814 L 955.500 272.128 944.213 282.814 M 934 302.789 C 934 304.647, 917.797 379.929, 914.979 391.164 C 910.619 408.547, 906.269 422.971, 902.459 432.674 L 899.188 441.007 902.489 448.834 C 917.882 485.332, 927.607 538.562, 932.481 613 C 933.327 625.925, 934.271 639.264, 934.578 642.641 L 935.136 648.783 944.084 652.535 C 949.006 654.599, 958.536 659.568, 965.264 663.577 C 974.243 668.929, 977.687 670.523, 978.218 669.574 C 979.946 666.487, 990.174 634.335, 993.353 622 C 1004.542 578.578, 1009.314 540.904, 1009.314 496 C 1009.314 443.899, 1002.690 399.691, 987.363 349.500 C 981.931 331.712, 980.540 328.811, 974.833 323.369 C 965.092 314.080, 956.123 308.625, 943.575 304.356 C 936.261 301.868, 934 301.498, 934 302.789 M 115.269 321.250 C 104.111 334.261, 93.041 349.461, 84.498 363.500 C 65.699 394.396, 48.023 436.897, 39.357 472.038 L 36.725 482.711 39.435 498.606 C 51.479 569.240, 68.744 620.043, 93.389 657.365 C 101.329 669.388, 105.513 673.376, 118.542 681.336 C 125.221 685.417, 139.651 691.969, 142.002 691.988 C 142.828 691.995, 184.224 651.278, 233.993 601.507 L 324.482 511.014 252.988 439.257 C 213.667 399.791, 168.904 354.788, 153.514 339.250 C 138.125 323.712, 125.203 311, 124.797 311 C 124.392 311, 120.104 315.613, 115.269 321.250 M 739.999 465.501 L 694.506 511.002 791.501 608.001 C 844.848 661.350, 888.722 704.986, 888.998 704.969 C 889.274 704.952, 898.388 692.931, 909.250 678.254 L 929 651.570 928.997 645.535 C 928.992 636.124, 926.196 596.590, 923.973 574.500 C 919.504 530.092, 913.558 498.325, 904.318 469.500 C 900.189 456.617, 895.124 444, 894.082 444 C 888.750 444, 849.909 435.474, 811.781 425.935 C 798.735 422.671, 787.483 420, 786.777 420 C 786.070 420, 765.020 440.475, 739.999 465.501 M 98.313 678.740 C 96.262 690.748, 98.550 729.884, 101.474 732.807 C 102.040 733.373, 138 698.115, 138 696.993 C 138 696.703, 135.261 695.377, 131.913 694.048 C 124.307 691.027, 112.270 684.048, 104.813 678.336 L 99.126 673.980 98.313 678.740 M 589 789.052 C 561.359 807.654, 533.524 820.116, 473 840.986 C 437.296 853.298, 413.712 861.982, 412.288 863.342 C 410.460 865.088, 408.029 878.037, 407.002 891.500 C 406.018 904.400, 407.039 926.826, 409.521 946.836 C 410.887 957.848, 411.109 958.527, 414.467 961.967 C 423.581 971.299, 444.077 979.829, 471 985.493 C 490.492 989.594, 538.437 989.582, 573.500 985.467 C 618.437 980.193, 662.552 968.851, 704.434 951.804 C 718.238 946.185, 745 933.332, 745 932.321 C 745 931.453, 597.859 783.998, 596.997 784.003 C 596.724 784.004, 593.125 786.276, 589 789.052 M 377.225 844.806 C 377.376 845.331, 372.325 851.296, 366 858.060 C 359.675 864.824, 354.725 870.453, 355 870.568 C 355.657 870.844, 349.591 877.327, 319.799 908.190 C 306.159 922.319, 295 934.274, 295 934.756 C 295 935.238, 300.288 938.155, 306.750 941.239 C 337.989 956.144, 373 962.981, 395.888 958.647 C 400.501 957.773, 404.462 956.872, 404.690 956.644 C 404.918 956.416, 404.387 949.765, 403.511 941.865 C 400.180 911.836, 400.521 886.436, 404.484 869.394 C 405.562 864.760, 405.592 863.353, 404.625 862.811 C 403.948 862.432, 398.018 858.356, 391.447 853.754 C 377.279 843.832, 376.871 843.575, 377.225 844.806 M 729.235 946.842 L 714.970 953.500 729.995 953.776 C 752.762 954.194, 756.123 952.411, 747.787 944.337 L 743.500 940.184 729.235 946.842 M 303.773 949.750 C 302.928 950.712, 301.944 952.463, 301.586 953.641 C 301.051 955.400, 301.502 955.979, 304.117 956.891 C 307.785 958.169, 322.878 958.364, 324.780 957.157 C 325.621 956.624, 322.702 954.912, 316.280 952.171 C 310.901 949.875, 306.232 947.997, 305.905 947.998 C 305.578 947.999, 304.618 948.788, 303.773 949.750" stroke="none" fill="#ed4a3e" fill-rule="evenodd"/></svg>