<svg xmlns="http://www.w3.org/2000/svg" version="1.0" width="150.000000pt" height="150.000000pt" viewBox="0 0 150.000000 150.000000" preserveAspectRatio="xMidYMid meet">

<g transform="translate(0.000000,150.000000) scale(0.100000,-0.100000)" fill="#a9a9a9" stroke="none">
<path d="M1045 1445 c-45 -16 -75 -48 -112 -120 -14 -27 -50 -80 -80 -117 -61 -75 -89 -85 -130 -46 -17 16 -34 21 -65 20 -51 -2 -84 -30 -99 -85 -13 -48 -6 -59 11 -17 19 46 44 39 74 -21 14 -29 23 -55 21 -60 -3 -4 -20 -3 -38 2 -49 14 -117 12 -117 -5 0 -9 19 -15 63 -18 82 -7 107 -20 107 -58 l0 -29 -42 15 c-50 18 -153 24 -154 9 -1 -5 33 -16 75 -23 84 -14 121 -33 121 -62 0 -18 -1 -18 -47 2 -26 12 -78 23 -115 26 -58 4 -68 2 -68 -12 0 -12 10 -16 43 -16 43 0 129 -22 156 -39 12 -8 13 -15 3 -35 l-11 -25 -48 21 c-26 12 -78 23 -115 26 -58 4 -68 2 -68 -12 0 -13 11 -16 53 -16 55 -1 148 -28 154 -45 2 -6 -2 -19 -9 -28 -12 -16 -16 -16 -55 4 -23 11 -67 23 -98 26 -42 5 -55 9 -51 20 10 25 -34 -12 -55 -46 -10 -17 -26 -31 -34 -31 -8 0 -15 -9 -15 -19 0 -11 -11 -28 -24 -38 -13 -10 -26 -28 -30 -40 -4 -12 -16 -25 -27 -28 -11 -4 -18 -12 -17 -18 2 -7 -7 -26 -20 -44 -40 -57 -92 -178 -99 -230 -5 -49 -5 -52 25 -67 41 -21 142 -20 212 3 52 17 54 20 58 57 7 69 86 226 156 310 224 269 258 323 300 467 31 106 29 103 68 123 27 14 39 15 84 4 63 -15 106 -10 157 20 l37 22 0 121 c0 66 3 117 6 114 4 -4 9 -62 11 -131 l5 -124 -31 -21 c-38 -27 -116 -42 -150 -29 -36 14 -95 12 -120 -4 -13 -8 -28 -35 -37 -68 -33 -116 -81 -233 -103 -250 -4 -3 -25 -30 -46 -60 -34 -46 -71 -92 -149 -180 -75 -85 -165 -260 -169 -327 l-2 -48 -70 -21 c-76 -23 -175 -24 -201 -3 -8 6 -17 9 -20 6 -13 -13 52 -41 103 -45 45 -4 61 -10 82 -33 21 -23 32 -27 59 -22 35 6 52 31 52 79 0 13 4 24 9 24 11 0 144 96 236 171 100 81 179 163 232 242 42 64 50 70 139 113 71 34 106 58 146 100 115 121 179 234 180 316 1 20 -18 72 -45 130 -26 54 -47 100 -47 103 0 4 -10 29 -21 56 -33 76 -92 97 -184 64z m-505 -790 c32 -17 38 -36 16 -54 -11 -9 -21 -7 -48 9 -18 11 -59 25 -90 31 -49 10 -56 14 -48 29 8 14 18 15 74 9 36 -5 79 -15 96 -24z m-104 -50 c27 -8 58 -21 69 -29 19 -14 19 -15 1 -35 -17 -18 -21 -19 -35 -7 -20 17 -107 46 -138 46 -25 0 -29 10 -11 28 16 16 54 15 114 -3z m-38 -70 c57 -17 69 -29 52 -50 -10 -12 -18 -12 -52 6 -22 11 -62 23 -89 26 -47 6 -57 12 -42 26 11 12 77 8 131 -8z m-27 -66 c23 -13 21 -14 -41 -26 -120 -23 -161 -13 -123 29 15 17 27 20 79 15 33 -2 71 -10 85 -18z" fill="#a9a9a9"/>
<path d="M1360 1007 c0 -48 -59 -142 -150 -239 -51 -54 -95 -97 -98 -96 -16 4 -111 -45 -105 -55 3 -6 1 -7 -6 -3 -20 13 -55 -18 -100 -88 -24 -36 -47 -66 -52 -66 -5 0 -9 -4 -9 -10 0 -19 -167 -167 -282 -249 l-47 -34 20 -29 c18 -25 25 -28 57 -22 50 9 49 8 57 60 6 44 9 47 61 70 35 15 52 28 48 36 -8 13 12 3 39 -20 16 -14 21 -14 52 1 34 16 35 18 35 77 0 41 7 76 24 112 41 92 78 133 151 167 l67 32 35 -22 c33 -21 36 -21 69 -6 31 15 34 21 34 59 0 33 5 46 20 56 12 7 18 17 14 23 -3 5 10 3 29 -5 34 -14 36 -13 62 14 l27 29 -16 47 c-9 26 -16 76 -16 110 0 35 -4 66 -10 69 -6 3 -10 -4 -10 -18z" fill="#a9a9a9"/>
</g>
</svg>