<svg xmlns="http://www.w3.org/2000/svg" version="1.0" preserveAspectRatio="xMidYMid meet" viewBox="32.6 48.31 447.24 415.35">

<g transform="translate(0.000000,512.000000) scale(0.100000,-0.100000)" fill="#a9a9a9" stroke="none">
<path d="M3420 4633 c-19 -2 -65 -8 -102 -14 l-67 -11 -25 -76 c-15 -43 -26 -80 -26 -84 0 -8 290 -205 315 -214 12 -5 273 162 314 201 20 20 -34 172 -64 179 -76 19 -251 29 -345 19z" fill="#a9a9a9"/>
<path d="M2955 4501 c-66 -33 -159 -89 -207 -125 -80 -61 -238 -219 -238 -238 0 -4 33 -8 74 -8 56 0 79 -4 94 -17 15 -13 39 -82 83 -233 34 -118 63 -216 64 -218 2 -2 44 -15 94 -28 l91 -25 225 152 225 153 0 100 -1 101 -165 110 c-204 135 -234 160 -234 189 0 13 9 49 20 81 11 32 20 60 20 62 0 11 -40 -4 -145 -56z" fill="#a9a9a9"/>
<path d="M3945 4539 c4 -13 14 -39 21 -58 15 -37 18 -79 6 -98 -4 -7 -93 -70 -197 -141 l-190 -128 -3 -100 -3 -101 229 -152 229 -152 87 24 c48 14 89 27 91 29 3 2 31 97 64 210 33 114 65 216 71 227 13 25 33 30 125 33 l70 3 -115 116 c-67 67 -148 137 -195 168 -84 55 -221 125 -269 137 -26 6 -28 5 -21 -17z" fill="#a9a9a9"/>
<path d="M2375 3923 c-59 -121 -96 -241 -120 -385 -5 -36 -4 -38 66 -92 l72 -56 41 33 c22 18 89 70 148 116 59 45 110 86 112 90 3 4 -19 88 -47 187 l-52 179 -91 3 -90 3 -39 -78z" fill="#a9a9a9"/>
<path d="M4445 3988 c-2 -7 -25 -85 -50 -173 -25 -88 -48 -165 -50 -172 -2 -7 66 -66 151 -133 l154 -120 70 52 c47 35 70 59 70 73 0 11 -11 68 -24 126 -25 110 -58 202 -108 302 l-28 57 -90 0 c-64 0 -92 -4 -95 -12z" fill="#a9a9a9"/>
<path d="M3310 3660 c-113 -76 -206 -143 -208 -148 -2 -7 43 -140 155 -460 l15 -42 250 2 250 3 84 240 c46 132 84 245 84 252 0 10 -385 279 -414 288 -6 2 -103 -58 -216 -135z" fill="#a9a9a9"/>
<path d="M2601 3394 c-114 -90 -192 -144 -206 -144 -13 0 -50 20 -84 45 -34 25 -62 45 -64 45 -1 0 1 -42 5 -92 8 -105 43 -251 83 -354 27 -69 119 -239 134 -248 4 -3 16 22 26 55 11 34 28 72 38 86 l20 24 241 -6 241 -6 58 76 c31 41 57 80 57 87 -1 7 -41 128 -89 268 l-89 255 -93 27 c-52 15 -94 27 -94 27 0 0 -83 -65 -184 -145z" fill="#a9a9a9"/>
<path d="M4165 3513 c-49 -14 -91 -26 -93 -27 -4 -5 -182 -518 -182 -526 0 -4 28 -42 62 -85 l62 -78 236 7 235 7 22 -23 c11 -13 30 -52 40 -88 l20 -65 41 65 c58 90 119 233 147 343 22 86 50 285 42 293 -2 2 -30 -16 -63 -41 -32 -24 -70 -45 -84 -45 -16 0 -62 28 -130 82 -58 45 -141 109 -185 143 l-80 62 -90 -24z" fill="#a9a9a9"/>
<path d="M1750 3483 c-190 -68 -424 -185 -592 -296 -184 -121 -370 -276 -389 -324 -18 -48 25 -103 81 -103 11 0 63 37 117 83 242 206 507 365 786 472 55 21 102 45 107 55 37 69 -33 141 -110 113z" fill="#a9a9a9"/>
<path d="M1745 2876 c-285 -110 -612 -348 -899 -656 -99 -105 -126 -144 -126 -178 0 -34 43 -72 81 -72 27 0 41 10 83 58 90 102 299 306 386 376 174 139 401 275 553 331 83 31 110 92 62 140 -30 31 -62 31 -140 1z" fill="#a9a9a9"/>
<path d="M3193 2801 l-62 -80 79 -220 c92 -253 92 -246 4 -306 -30 -21 -54 -41 -54 -45 0 -13 131 -40 251 -52 80 -8 138 -8 218 0 122 13 251 39 251 52 0 5 -15 19 -32 31 -60 41 -88 72 -88 98 0 14 34 119 76 233 l75 208 -62 80 -61 80 -267 0 -266 0 -62 -79z" fill="#a9a9a9"/>
<path d="M577 2668 c-67 -74 -187 -261 -187 -295 0 -57 77 -95 123 -60 9 6 42 53 75 102 32 50 75 110 95 134 46 53 53 80 33 119 -30 58 -84 58 -139 0z" fill="#a9a9a9"/>
<path d="M2610 2643 c-5 -21 -16 -59 -24 -85 l-15 -47 73 -68 c86 -80 195 -158 291 -207 l67 -34 73 50 73 50 -29 77 c-15 42 -45 124 -65 182 l-38 106 -135 7 c-74 3 -163 6 -197 6 l-63 0 -11 -37z" fill="#a9a9a9"/>
<path d="M4116 2671 l-89 -6 -64 -174 c-35 -96 -62 -180 -59 -186 2 -7 34 -33 70 -59 l67 -47 67 36 c115 64 201 125 283 204 l80 76 -26 83 -26 82 -107 -2 c-59 -1 -147 -4 -196 -7z" fill="#a9a9a9"/>
<path d="M1930 2322 c-103 -58 -282 -177 -321 -213 -39 -36 -40 -89 -3 -118 15 -12 37 -21 49 -21 12 0 78 38 146 84 68 45 161 105 207 131 115 67 136 102 91 159 -31 39 -69 34 -169 -22z" fill="#a9a9a9"/>
<path d="M2371 1980 c-112 -53 -302 -184 -403 -279 -54 -50 -61 -82 -27 -125 36 -46 74 -37 175 45 122 97 266 192 345 227 36 17 69 37 73 47 12 32 6 75 -14 95 -28 28 -74 25 -149 -10z" fill="#a9a9a9"/>
<path d="M1185 1738 c-216 -219 -362 -410 -498 -653 -96 -172 -217 -463 -217 -524 0 -64 73 -100 122 -62 14 11 29 33 33 48 15 62 99 261 159 381 129 254 290 472 528 719 76 78 138 149 138 158 0 24 -27 72 -45 79 -52 19 -67 9 -220 -146z" fill="#a9a9a9"/>
<path d="M560 1837 c-47 -23 -233 -329 -234 -384 0 -45 28 -73 74 -73 44 0 62 18 113 110 19 36 61 105 92 155 69 109 75 133 43 168 -29 32 -56 40 -88 24z" fill="#a9a9a9"/>
<path d="M1627 1403 c-107 -106 -133 -146 -117 -187 13 -36 54 -60 87 -51 17 4 72 51 136 115 93 95 107 114 107 143 0 44 -34 77 -80 77 -28 0 -47 -14 -133 -97z" fill="#a9a9a9"/>
</g>
</svg>