<svg xmlns="http://www.w3.org/2000/svg" xmlns:xlink="http://www.w3.org/1999/xlink" id="svg" version="1.1" width="400" height="400" viewBox="0, 0, 400,400"><g id="svgg"><path id="path0" d="M34.854 107.700 C 35.060 108.085,35.322 108.400,35.438 108.400 C 35.553 108.400,35.543 108.231,35.415 108.025 C 35.288 107.818,35.495 107.475,35.876 107.262 C 36.453 106.939,36.394 106.885,35.524 106.937 C 34.660 106.989,34.544 107.121,34.854 107.700 M364.124 107.262 C 364.505 107.475,364.712 107.818,364.585 108.025 C 364.457 108.231,364.447 108.400,364.562 108.400 C 365.478 108.400,365.395 106.992,364.476 106.937 C 363.606 106.885,363.547 106.939,364.124 107.262 M27.687 114.245 C 27.346 114.610,27.397 114.863,27.892 115.265 C 28.462 115.729,28.515 115.707,28.287 115.100 C 28.043 114.448,28.595 114.165,29.730 114.363 C 29.911 114.394,29.953 114.247,29.822 114.035 C 29.503 113.520,28.249 113.643,27.687 114.245 M371.700 114.591 C 371.700 115.431,371.802 115.530,372.269 115.143 C 372.582 114.883,372.694 114.563,372.519 114.431 C 372.344 114.299,372.088 114.050,371.950 113.879 C 371.813 113.707,371.700 114.028,371.700 114.591 M26.446 115.724 C 26.418 116.168,26.220 116.336,25.932 116.158 C 25.615 115.962,25.549 116.089,25.727 116.555 C 25.873 116.935,25.826 117.140,25.623 117.014 C 25.043 116.656,24.683 117.577,25.172 118.166 C 25.518 118.583,25.353 118.749,24.406 118.939 C 23.743 119.071,23.200 119.375,23.200 119.614 C 23.200 119.852,23.380 119.936,23.600 119.800 C 24.251 119.398,24.056 119.857,23.323 120.451 C 22.863 120.824,22.743 120.840,22.947 120.500 C 23.112 120.225,23.074 120.000,22.863 120.000 C 22.651 120.000,22.290 120.540,22.060 121.200 C 21.830 121.860,21.532 122.400,21.397 122.400 C 21.263 122.400,21.264 122.220,21.400 122.000 C 21.536 121.780,21.549 121.600,21.429 121.600 C 21.309 121.600,20.942 122.243,20.614 123.029 C 20.285 123.815,19.838 124.347,19.620 124.212 C 18.972 123.812,18.606 126.025,19.246 126.478 C 19.656 126.768,19.567 126.818,18.899 126.672 C 18.373 126.557,18.099 126.637,18.240 126.864 C 18.372 127.079,18.104 127.352,17.645 127.472 C 17.185 127.593,16.896 127.832,17.002 128.004 C 17.108 128.175,16.926 128.419,16.598 128.546 C 16.269 128.672,16.000 128.973,16.000 129.216 C 16.000 129.459,15.730 129.927,15.400 130.257 C 14.673 130.984,14.606 131.746,15.300 131.393 C 15.575 131.253,15.350 131.535,14.800 132.018 C 14.250 132.501,13.857 133.163,13.927 133.489 C 13.996 133.814,13.874 133.969,13.654 133.834 C 13.435 133.698,13.142 133.770,13.004 133.993 C 12.866 134.217,12.943 134.400,13.176 134.400 C 13.409 134.400,13.600 134.580,13.600 134.800 C 13.600 135.020,13.438 135.155,13.240 135.100 C 13.042 135.045,12.874 135.149,12.866 135.330 C 12.859 135.512,12.526 135.962,12.126 136.330 C 11.727 136.699,11.341 137.270,11.270 137.600 C 11.198 137.930,10.972 138.260,10.768 138.334 C 10.563 138.408,10.509 138.653,10.649 138.879 C 10.788 139.105,10.724 139.404,10.505 139.545 C 9.956 139.897,8.400 143.031,8.400 143.784 C 8.400 144.123,8.265 144.401,8.100 144.403 C 7.744 144.407,6.800 146.341,6.800 147.068 C 6.800 147.347,6.440 148.217,6.000 149.000 C 5.560 149.783,5.200 150.779,5.200 151.212 C 5.200 151.645,5.040 152.000,4.845 152.000 C 4.650 152.000,4.380 152.540,4.245 153.200 C 4.110 153.860,3.890 154.940,3.755 155.600 C 3.620 156.260,3.389 156.800,3.242 156.800 C 3.095 156.800,2.934 157.287,2.885 157.882 C 2.836 158.478,2.616 159.144,2.398 159.362 C 2.179 159.581,2.000 160.354,2.000 161.080 C 2.000 161.806,1.841 162.400,1.647 162.400 C 1.453 162.400,1.285 163.111,1.273 163.979 C 1.261 164.847,1.027 165.972,0.753 166.479 C 0.095 167.697,0.041 183.150,0.681 187.000 C 4.204 208.175,13.036 226.114,28.843 244.200 C 37.468 254.069,46.537 262.384,57.600 270.565 C 59.910 272.273,62.313 274.060,62.940 274.535 C 63.567 275.011,64.550 275.670,65.123 276.000 C 65.697 276.330,66.523 276.915,66.958 277.300 C 67.394 277.685,67.972 278.000,68.242 278.000 C 68.512 278.000,68.793 278.136,68.867 278.303 C 69.205 279.070,83.534 287.317,89.800 290.351 C 91.780 291.309,94.460 292.613,95.756 293.247 C 97.052 293.881,98.341 294.400,98.621 294.400 C 104.038 294.400,103.622 320.546,98.013 332.600 C 97.604 333.480,97.029 334.785,96.737 335.500 C 96.444 336.215,96.069 336.800,95.902 336.800 C 95.736 336.800,95.597 337.025,95.593 337.300 C 95.584 337.869,94.213 339.665,91.617 342.508 L 89.833 344.461 93.617 344.228 C 95.698 344.100,99.020 343.901,101.000 343.786 C 102.980 343.671,104.960 343.410,105.400 343.205 C 105.840 343.001,107.280 342.746,108.600 342.639 C 109.920 342.532,112.170 342.248,113.600 342.007 C 115.030 341.767,117.010 341.470,118.000 341.346 C 118.990 341.223,119.971 340.960,120.180 340.761 C 120.389 340.563,121.233 340.400,122.056 340.400 C 122.879 340.400,123.664 340.220,123.800 340.000 C 123.936 339.780,124.746 339.600,125.600 339.600 C 126.454 339.600,127.264 339.420,127.400 339.200 C 127.536 338.980,128.256 338.800,129.000 338.800 C 129.744 338.800,130.464 338.620,130.600 338.400 C 130.736 338.180,131.366 338.000,132.000 338.000 C 132.634 338.000,133.264 337.820,133.400 337.600 C 133.536 337.380,134.166 337.200,134.800 337.200 C 135.434 337.200,136.064 337.020,136.200 336.800 C 136.336 336.580,136.966 336.400,137.600 336.400 C 138.234 336.400,138.864 336.220,139.000 336.000 C 139.136 335.780,139.676 335.600,140.200 335.600 C 140.724 335.600,141.264 335.420,141.400 335.200 C 141.536 334.980,142.076 334.800,142.600 334.800 C 143.124 334.800,143.664 334.620,143.800 334.400 C 143.936 334.180,144.399 334.000,144.829 334.000 C 145.259 334.000,145.923 333.829,146.305 333.619 C 146.687 333.409,148.170 332.844,149.600 332.363 C 151.030 331.882,153.167 331.064,154.350 330.544 C 155.532 330.025,156.649 329.600,156.832 329.600 C 157.164 329.600,161.233 327.795,164.138 326.360 C 164.984 325.942,165.929 325.600,166.238 325.600 C 166.547 325.600,166.800 325.420,166.800 325.200 C 166.800 324.980,167.160 324.800,167.600 324.800 C 168.040 324.800,168.400 324.620,168.400 324.400 C 168.400 324.180,168.760 324.000,169.200 324.000 C 169.640 324.000,170.000 323.820,170.000 323.600 C 170.000 323.380,170.360 323.200,170.800 323.200 C 171.240 323.200,171.600 323.064,171.600 322.898 C 171.600 322.731,172.185 322.341,172.900 322.030 C 173.615 321.719,175.343 320.775,176.741 319.932 C 178.138 319.089,179.339 318.400,179.409 318.400 C 179.657 318.400,186.217 314.264,187.438 313.339 C 188.119 312.822,188.884 312.400,189.138 312.400 C 189.392 312.400,189.600 312.239,189.600 312.043 C 189.600 311.174,191.904 310.997,206.600 310.737 C 215.180 310.585,224.180 310.275,226.600 310.048 C 235.064 309.254,244.481 307.985,250.800 306.786 C 252.010 306.556,253.900 306.205,255.000 306.006 C 256.100 305.806,257.855 305.453,258.900 305.221 C 260.873 304.784,263.188 304.270,266.100 303.622 C 268.918 302.995,270.878 302.511,273.349 301.831 C 281.386 299.620,283.103 299.137,284.000 298.834 C 284.550 298.648,286.350 298.083,288.000 297.576 C 289.650 297.070,291.171 296.508,291.380 296.328 C 291.589 296.148,292.086 296.000,292.485 296.000 C 292.884 296.000,293.523 295.834,293.905 295.632 C 294.287 295.430,295.680 294.872,297.000 294.393 C 298.320 293.914,299.805 293.360,300.300 293.161 C 300.795 292.962,301.605 292.638,302.100 292.441 C 302.940 292.106,303.605 291.824,307.500 290.158 C 315.487 286.742,327.145 280.829,333.000 277.224 C 334.540 276.276,336.404 275.155,337.143 274.733 C 340.054 273.069,350.708 265.425,354.034 262.613 C 354.823 261.946,356.263 260.770,357.234 260.001 C 360.096 257.733,371.608 246.100,374.851 242.200 C 388.467 225.822,396.423 208.304,399.284 188.400 C 399.947 183.790,399.921 167.717,399.249 166.479 C 398.974 165.972,398.739 164.847,398.727 163.979 C 398.715 163.111,398.547 162.400,398.353 162.400 C 398.159 162.400,398.000 161.806,398.000 161.080 C 398.000 160.354,397.821 159.581,397.602 159.362 C 397.384 159.144,397.164 158.478,397.115 157.882 C 397.066 157.287,396.905 156.800,396.758 156.800 C 396.611 156.800,396.380 156.260,396.245 155.600 C 396.110 154.940,395.890 153.860,395.755 153.200 C 395.620 152.540,395.350 152.000,395.155 152.000 C 394.960 152.000,394.800 151.645,394.800 151.212 C 394.800 150.779,394.440 149.783,394.000 149.000 C 393.560 148.217,393.200 147.347,393.200 147.068 C 393.200 146.341,392.256 144.407,391.900 144.403 C 391.735 144.401,391.600 144.123,391.600 143.784 C 391.600 143.031,390.044 139.897,389.495 139.545 C 389.276 139.404,389.212 139.105,389.351 138.879 C 389.491 138.653,389.437 138.408,389.232 138.334 C 389.028 138.260,388.802 137.930,388.730 137.600 C 388.659 137.270,388.273 136.699,387.874 136.330 C 387.474 135.962,387.114 135.512,387.074 135.330 C 387.033 135.149,386.865 135.045,386.700 135.100 C 386.535 135.155,386.400 135.020,386.400 134.800 C 386.400 134.580,386.591 134.400,386.824 134.400 C 387.057 134.400,387.134 134.217,386.996 133.993 C 386.858 133.770,386.565 133.698,386.346 133.834 C 386.126 133.969,386.004 133.814,386.073 133.489 C 386.143 133.163,385.750 132.501,385.200 132.018 C 384.650 131.535,384.425 131.253,384.700 131.393 C 385.358 131.727,385.343 131.001,384.678 130.329 C 384.390 130.038,384.036 129.485,383.890 129.100 C 383.744 128.715,383.429 128.400,383.189 128.400 C 382.949 128.400,382.851 128.240,382.972 128.045 C 383.092 127.850,382.815 127.593,382.355 127.472 C 381.896 127.352,381.628 127.079,381.760 126.864 C 381.901 126.637,381.627 126.557,381.101 126.672 C 380.433 126.818,380.344 126.768,380.754 126.478 C 381.394 126.025,381.028 123.812,380.380 124.212 C 380.162 124.347,379.715 123.815,379.386 123.029 C 379.058 122.243,378.691 121.600,378.571 121.600 C 378.451 121.600,378.445 121.750,378.559 121.933 C 378.672 122.117,378.511 122.267,378.200 122.267 C 377.889 122.267,377.729 122.115,377.843 121.930 C 378.141 121.448,377.621 120.000,377.149 120.000 C 376.931 120.000,376.864 120.180,377.000 120.400 C 377.402 121.051,376.943 120.856,376.349 120.123 C 375.976 119.663,375.960 119.543,376.300 119.747 C 376.577 119.913,376.800 119.854,376.800 119.614 C 376.800 119.375,376.257 119.071,375.594 118.939 C 374.647 118.749,374.482 118.583,374.828 118.166 C 375.317 117.577,374.957 116.656,374.377 117.014 C 374.171 117.141,374.128 116.924,374.279 116.521 C 374.507 115.914,374.453 115.879,373.938 116.297 C 373.602 116.570,373.238 116.704,373.129 116.596 C 373.020 116.487,295.065 116.398,199.895 116.398 C 35.521 116.398,26.849 116.363,26.676 115.699 C 26.507 115.054,26.489 115.056,26.446 115.724 M116.433 153.244 C 123.260 154.709,129.569 159.027,133.420 164.872 C 134.399 166.358,135.200 167.672,135.200 167.791 C 135.200 167.911,135.536 168.772,135.948 169.704 C 137.502 173.230,137.800 174.935,137.781 180.200 C 137.762 185.333,136.750 191.600,135.940 191.600 C 135.753 191.600,135.600 191.962,135.600 192.405 C 135.600 192.848,135.441 193.523,135.247 193.905 C 135.052 194.287,134.655 195.140,134.365 195.800 C 132.932 199.052,128.034 204.681,125.167 206.370 C 122.493 207.946,119.841 209.200,119.183 209.200 C 118.778 209.200,118.336 209.380,118.200 209.600 C 118.064 209.820,117.189 210.000,116.256 210.000 C 115.323 210.000,114.366 210.194,114.128 210.432 C 113.446 211.114,104.274 210.366,103.420 209.559 C 103.211 209.362,102.637 209.200,102.144 209.200 C 101.651 209.200,101.136 209.020,101.000 208.800 C 100.864 208.580,100.403 208.400,99.976 208.400 C 99.549 208.400,99.200 208.254,99.200 208.075 C 99.200 207.896,98.570 207.502,97.800 207.200 C 97.030 206.898,96.400 206.543,96.400 206.412 C 96.400 206.280,95.864 205.856,95.209 205.469 C 93.772 204.620,90.000 201.004,90.000 200.475 C 90.000 200.268,89.719 199.865,89.375 199.580 C 89.032 199.294,88.216 197.877,87.562 196.431 C 86.908 194.984,86.199 193.487,85.987 193.105 C 85.774 192.723,85.600 192.059,85.600 191.629 C 85.600 191.199,85.420 190.736,85.200 190.600 C 84.980 190.464,84.800 189.949,84.800 189.456 C 84.800 188.963,84.596 188.356,84.346 188.106 C 83.537 187.297,83.413 177.034,84.174 173.800 C 87.528 159.531,102.189 150.190,116.433 153.244 M210.374 153.620 C 224.105 157.425,232.630 170.635,230.425 184.690 C 229.760 188.931,226.680 198.000,225.906 198.000 C 225.738 198.000,225.600 198.270,225.600 198.600 C 225.600 198.930,225.420 199.200,225.200 199.200 C 224.980 199.200,224.800 199.383,224.800 199.607 C 224.800 200.139,219.739 205.200,219.207 205.200 C 218.983 205.200,218.800 205.380,218.800 205.600 C 218.800 205.820,218.530 206.000,218.200 206.000 C 217.870 206.000,217.600 206.159,217.600 206.353 C 217.600 206.548,217.285 206.810,216.900 206.936 C 216.515 207.062,215.430 207.623,214.489 208.182 C 213.548 208.742,212.434 209.200,212.013 209.200 C 211.592 209.200,211.136 209.380,211.000 209.600 C 210.864 209.820,209.989 210.000,209.056 210.000 C 208.123 210.000,207.166 210.194,206.928 210.432 C 206.246 211.114,197.074 210.366,196.220 209.559 C 196.011 209.362,195.437 209.200,194.944 209.200 C 194.451 209.200,193.936 209.020,193.800 208.800 C 193.664 208.580,193.203 208.400,192.776 208.400 C 192.349 208.400,192.000 208.254,192.000 208.075 C 192.000 207.896,191.370 207.502,190.600 207.200 C 189.830 206.898,189.200 206.543,189.200 206.412 C 189.200 206.280,188.636 205.840,187.948 205.433 C 186.546 204.604,184.029 202.118,182.449 200.000 C 181.875 199.230,181.314 198.510,181.202 198.400 C 180.726 197.929,180.000 196.363,180.000 195.805 C 180.000 195.472,179.820 195.200,179.600 195.200 C 179.380 195.200,179.200 194.840,179.200 194.400 C 179.200 193.960,179.020 193.600,178.800 193.600 C 178.580 193.600,178.400 193.180,178.400 192.667 C 178.400 192.153,178.276 191.610,178.125 191.459 C 176.784 190.118,175.728 176.561,176.758 173.919 C 176.955 173.413,177.353 172.190,177.642 171.200 C 181.435 158.210,196.922 149.892,210.374 153.620 M304.400 153.936 C 312.025 156.407,322.000 166.389,322.000 171.549 C 322.000 171.929,322.162 172.411,322.359 172.620 C 322.704 172.985,322.890 174.034,323.452 178.754 C 323.688 180.739,323.327 183.851,322.335 188.400 C 322.119 189.390,321.845 190.695,321.726 191.300 C 321.607 191.905,321.350 192.400,321.155 192.400 C 320.960 192.400,320.800 192.850,320.800 193.400 C 320.800 193.950,320.620 194.400,320.400 194.400 C 320.180 194.400,320.000 194.665,320.000 194.988 C 320.000 197.326,313.864 204.523,310.297 206.368 C 309.694 206.680,309.200 207.085,309.200 207.268 C 309.200 207.450,308.840 207.600,308.400 207.600 C 307.960 207.600,307.600 207.780,307.600 208.000 C 307.600 208.220,307.240 208.400,306.800 208.400 C 306.360 208.400,306.000 208.580,306.000 208.800 C 306.000 209.020,305.586 209.200,305.080 209.200 C 304.574 209.200,303.989 209.362,303.780 209.559 C 302.877 210.412,295.148 210.999,292.443 210.420 C 287.663 209.397,283.641 207.942,283.267 207.100 C 283.193 206.935,282.878 206.800,282.567 206.800 C 282.255 206.800,282.000 206.620,282.000 206.400 C 282.000 206.180,281.822 206.000,281.605 206.000 C 279.745 206.000,273.573 198.784,272.196 195.000 C 271.795 193.900,271.318 192.829,271.134 192.620 C 270.950 192.411,270.800 191.862,270.800 191.400 C 270.800 190.938,270.649 190.389,270.464 190.180 C 269.093 188.627,268.502 177.828,269.558 173.600 C 272.074 163.518,279.871 155.800,290.000 153.365 C 293.319 152.567,301.131 152.877,304.400 153.936 M93.309 309.600 C 93.309 310.590,93.387 310.995,93.482 310.500 C 93.578 310.005,93.578 309.195,93.482 308.700 C 93.387 308.205,93.309 308.610,93.309 309.600 " stroke="none" fill="#d3d3d3" fill-rule="evenodd"/><path id="path1" d="M105.600 153.663 C 101.639 154.744,100.403 155.174,98.645 156.084 C 89.210 160.971,84.241 169.221,84.239 180.000 C 84.237 185.764,84.473 186.966,86.489 191.500 C 90.514 200.548,100.046 206.505,110.600 206.566 C 138.827 206.729,147.856 169.153,122.732 156.082 C 120.712 155.031,119.597 154.639,115.754 153.632 C 113.772 153.112,107.550 153.132,105.600 153.663 M198.400 153.583 C 197.850 153.759,196.590 154.135,195.600 154.420 C 176.868 159.797,170.409 184.646,184.132 198.541 C 205.629 220.306,240.473 195.687,227.288 168.049 C 224.495 162.194,216.177 154.800,212.383 154.800 C 212.166 154.800,211.677 154.641,211.295 154.447 C 209.061 153.313,200.945 152.769,198.400 153.583 M290.800 153.663 C 284.857 155.284,281.415 157.095,277.652 160.581 C 275.977 162.133,272.000 167.578,272.000 168.320 C 272.000 168.517,271.724 169.231,271.386 169.907 C 269.692 173.304,268.923 182.823,270.056 186.372 C 274.766 201.119,287.140 208.941,301.431 206.207 C 323.950 201.898,330.456 172.906,312.138 158.500 C 311.229 157.785,310.359 157.200,310.204 157.200 C 310.050 157.200,309.446 156.864,308.862 156.454 C 307.750 155.673,304.331 154.444,301.094 153.661 C 298.848 153.118,292.796 153.119,290.800 153.663 " stroke="none" fill="#737373" fill-rule="evenodd"/><path id="path2" d="M269.324 180.200 C 269.326 181.520,269.401 182.012,269.490 181.293 C 269.579 180.574,269.577 179.494,269.486 178.893 C 269.395 178.292,269.322 178.880,269.324 180.200 M272.667 193.606 C 273.059 194.270,273.798 195.305,274.310 195.906 C 274.821 196.508,274.575 195.965,273.763 194.700 C 272.224 192.303,271.428 191.507,272.667 193.606 M181.164 195.533 C 181.380 195.936,181.871 196.521,182.255 196.833 C 182.687 197.184,182.590 196.904,182.001 196.100 C 180.951 194.665,180.557 194.398,181.164 195.533 M129.785 198.900 L 127.800 201.000 129.900 199.015 C 131.055 197.923,132.000 196.978,132.000 196.915 C 132.000 196.617,131.629 196.949,129.785 198.900 M222.825 198.569 L 221.450 200.200 223.005 198.713 C 223.860 197.896,224.479 197.162,224.380 197.083 C 224.281 197.003,223.581 197.672,222.825 198.569 M277.000 199.200 C 277.859 200.080,278.652 200.800,278.762 200.800 C 278.872 200.800,278.259 200.080,277.400 199.200 C 276.541 198.320,275.748 197.600,275.638 197.600 C 275.528 197.600,276.141 198.320,277.000 199.200 M126.000 202.049 C 124.606 203.271,124.605 203.272,125.888 202.419 C 126.596 201.948,127.282 201.391,127.412 201.181 C 127.797 200.557,127.477 200.754,126.000 202.049 M280.385 201.971 C 281.147 202.647,281.942 203.200,282.152 203.200 C 282.362 203.200,282.458 203.148,282.367 203.084 C 282.275 203.020,281.480 202.467,280.600 201.855 L 279.000 200.742 280.385 201.971 M103.200 205.982 C 103.530 206.205,104.145 206.391,104.567 206.394 C 105.590 206.402,105.271 206.173,103.800 205.844 C 102.924 205.648,102.762 205.685,103.200 205.982 M109.300 207.091 C 110.125 207.178,111.475 207.178,112.300 207.091 C 113.125 207.005,112.450 206.934,110.800 206.934 C 109.150 206.934,108.475 207.005,109.300 207.091 M201.891 207.089 C 202.601 207.177,203.861 207.179,204.691 207.092 C 205.521 207.005,204.940 206.933,203.400 206.931 C 201.860 206.929,201.181 207.000,201.891 207.089 M294.691 207.089 C 295.401 207.177,296.661 207.179,297.491 207.092 C 298.321 207.005,297.740 206.933,296.200 206.931 C 294.660 206.929,293.981 207.000,294.691 207.089 M3.361 208.706 C 2.641 209.187,2.860 210.400,3.667 210.400 C 4.070 210.400,4.400 210.209,4.400 209.976 C 4.400 209.743,4.201 209.676,3.957 209.826 C 3.659 210.011,3.603 209.822,3.784 209.250 C 4.077 208.327,4.026 208.261,3.361 208.706 M396.217 209.253 C 396.398 209.823,396.341 210.011,396.043 209.826 C 395.799 209.676,395.600 209.743,395.600 209.976 C 395.600 210.209,395.922 210.400,396.315 210.400 C 397.198 210.400,397.387 208.957,396.547 208.635 C 396.088 208.459,396.011 208.603,396.217 209.253 M3.900 212.665 C 4.175 212.776,4.400 213.122,4.400 213.433 C 4.400 214.116,5.041 214.181,5.438 213.538 C 5.628 213.231,5.546 213.186,5.194 213.404 C 4.809 213.642,4.734 213.549,4.919 213.066 C 5.112 212.564,4.956 212.408,4.287 212.432 C 3.799 212.449,3.625 212.554,3.900 212.665 M6.800 221.055 C 6.800 221.249,7.160 221.632,7.600 221.907 C 8.280 222.332,8.400 222.307,8.400 221.737 C 8.400 221.368,8.282 221.185,8.137 221.330 C 7.992 221.475,7.632 221.393,7.337 221.148 C 7.042 220.903,6.800 220.861,6.800 221.055 M392.596 221.207 C 392.458 221.430,392.177 221.509,391.972 221.383 C 391.768 221.256,391.600 221.435,391.600 221.780 C 391.600 222.307,391.728 222.327,392.400 221.907 C 392.840 221.632,393.200 221.271,393.200 221.104 C 393.200 220.675,392.892 220.727,392.596 221.207 M8.698 223.900 C 8.338 224.621,8.667 225.333,9.500 225.641 C 10.158 225.885,10.400 225.827,10.400 225.425 C 10.400 225.078,10.114 224.950,9.627 225.077 C 9.003 225.240,8.896 225.118,9.074 224.440 C 9.282 223.642,9.016 223.261,8.698 223.900 M390.672 224.445 C 390.552 224.904,390.262 225.162,390.027 225.017 C 389.792 224.872,389.600 225.028,389.600 225.364 C 389.600 226.212,391.299 225.567,391.431 224.668 C 391.577 223.673,390.925 223.481,390.672 224.445 M9.600 227.049 C 9.600 227.604,9.701 227.621,10.300 227.162 C 10.685 226.867,11.075 226.575,11.167 226.513 C 11.258 226.451,10.943 226.400,10.467 226.400 C 9.934 226.400,9.600 226.650,9.600 227.049 M388.833 226.513 C 388.925 226.575,389.315 226.867,389.700 227.162 C 390.299 227.621,390.400 227.604,390.400 227.049 C 390.400 226.650,390.066 226.400,389.533 226.400 C 389.057 226.400,388.742 226.451,388.833 226.513 M10.639 227.986 C 9.968 228.222,9.959 228.302,10.532 228.875 C 10.878 229.221,11.080 229.616,10.981 229.752 C 10.881 229.889,10.918 229.912,11.063 229.803 C 11.208 229.695,11.547 229.790,11.816 230.014 C 12.617 230.678,12.800 229.487,12.042 228.551 C 11.602 228.008,11.124 227.816,10.639 227.986 M387.882 228.709 C 387.488 229.144,387.368 229.624,387.570 229.952 C 387.805 230.331,387.980 230.355,388.178 230.036 C 388.330 229.789,388.651 229.708,388.889 229.855 C 389.149 230.015,389.209 229.937,389.038 229.662 C 388.881 229.408,388.924 229.200,389.134 229.200 C 389.343 229.200,389.618 228.930,389.745 228.600 C 390.073 227.743,388.682 227.825,387.882 228.709 M12.100 230.665 C 11.825 230.776,11.600 231.042,11.600 231.257 C 11.600 231.472,11.781 231.535,12.003 231.398 C 12.224 231.261,12.514 231.431,12.646 231.775 C 12.778 232.119,13.113 232.400,13.391 232.400 C 13.702 232.400,13.878 232.887,13.848 233.664 C 13.818 234.465,14.020 235.002,14.400 235.130 C 14.918 235.303,14.924 235.237,14.443 234.656 C 13.956 234.065,13.971 234.014,14.566 234.242 C 14.940 234.386,15.160 234.728,15.054 235.003 C 14.949 235.278,15.073 235.715,15.331 235.975 C 15.691 236.337,15.614 236.388,15.000 236.193 C 14.262 235.959,14.256 235.975,14.921 236.401 C 15.477 236.757,15.797 236.741,16.321 236.332 C 16.917 235.865,16.939 235.878,16.503 236.437 C 16.230 236.787,16.135 237.202,16.291 237.358 C 16.448 237.514,16.221 237.509,15.788 237.346 C 15.081 237.081,15.058 237.122,15.564 237.743 C 15.874 238.125,16.389 238.336,16.709 238.214 C 17.156 238.042,17.231 238.220,17.037 238.995 C 16.884 239.603,16.955 240.000,17.216 240.000 C 17.453 240.000,17.519 239.792,17.362 239.538 C 17.185 239.252,17.252 239.185,17.539 239.362 C 17.794 239.520,18.359 240.432,18.796 241.390 C 19.232 242.348,19.906 243.449,20.294 243.837 C 20.683 244.225,21.000 244.650,21.000 244.781 C 21.000 245.003,21.477 245.622,22.700 246.985 C 22.975 247.292,23.200 247.711,23.200 247.917 C 23.200 248.574,27.451 252.814,27.796 252.501 C 27.978 252.335,28.023 252.492,27.896 252.849 C 27.744 253.274,27.995 253.676,28.618 254.010 C 29.143 254.291,29.477 254.675,29.361 254.863 C 29.107 255.275,30.157 256.400,30.795 256.400 C 31.044 256.400,31.136 256.580,31.000 256.800 C 30.864 257.020,30.925 257.200,31.135 257.200 C 31.739 257.200,34.000 259.323,34.000 259.889 C 34.000 260.170,34.281 260.400,34.624 260.400 C 34.967 260.400,35.157 260.545,35.048 260.723 C 34.847 261.047,36.648 262.600,37.225 262.600 C 37.394 262.600,37.881 263.002,38.307 263.493 C 38.733 263.984,39.198 264.269,39.341 264.126 C 39.483 263.983,39.600 264.101,39.600 264.386 C 39.600 264.672,39.938 265.197,40.351 265.553 C 43.474 268.244,45.012 269.381,45.376 269.267 C 45.609 269.193,45.677 269.256,45.527 269.406 C 45.197 269.736,46.887 271.428,48.916 272.800 C 49.729 273.350,50.396 273.935,50.397 274.100 C 50.399 274.265,50.760 274.400,51.200 274.400 C 51.640 274.400,52.000 274.580,52.000 274.800 C 52.000 275.020,52.180 275.200,52.400 275.200 C 52.620 275.200,53.154 275.515,53.586 275.900 C 55.611 277.702,56.282 278.209,56.795 278.325 C 57.100 278.394,57.662 278.810,58.044 279.251 C 58.427 279.692,58.859 280.022,59.005 279.985 C 59.152 279.948,59.673 280.267,60.163 280.693 C 60.654 281.120,61.615 281.717,62.299 282.019 C 62.983 282.322,63.467 282.691,63.375 282.840 C 63.284 282.988,63.522 283.085,63.904 283.055 C 64.287 283.025,64.559 283.214,64.508 283.475 C 64.455 283.752,64.748 283.887,65.208 283.798 C 65.688 283.706,66.000 283.863,66.000 284.197 C 66.000 284.500,66.620 284.973,67.379 285.247 C 68.137 285.521,68.647 285.923,68.513 286.141 C 68.368 286.375,68.546 286.429,68.950 286.275 C 69.371 286.113,69.717 286.239,69.857 286.604 C 69.982 286.929,70.259 287.087,70.473 286.955 C 70.686 286.823,71.218 287.098,71.654 287.566 C 72.091 288.035,72.617 288.313,72.824 288.185 C 73.031 288.057,73.200 288.131,73.200 288.349 C 73.200 288.568,73.605 288.870,74.100 289.020 C 74.595 289.171,75.316 289.572,75.702 289.912 C 76.089 290.251,76.509 290.424,76.636 290.297 C 76.764 290.170,77.205 290.354,77.616 290.707 C 78.028 291.059,78.685 291.395,79.075 291.452 C 79.466 291.510,79.849 291.746,79.926 291.978 C 80.003 292.210,80.412 292.400,80.833 292.400 C 81.255 292.400,81.600 292.580,81.600 292.800 C 81.600 293.020,81.960 293.200,82.400 293.200 C 82.840 293.200,83.200 293.380,83.200 293.600 C 83.200 293.820,83.560 294.000,84.000 294.000 C 84.440 294.000,84.800 294.180,84.800 294.400 C 84.800 294.620,85.160 294.800,85.600 294.800 C 86.040 294.800,86.400 294.999,86.400 295.243 C 86.400 295.486,86.664 295.584,86.987 295.460 C 87.310 295.336,87.683 295.410,87.815 295.624 C 87.947 295.838,88.223 295.909,88.428 295.783 C 88.632 295.656,88.800 295.743,88.800 295.976 C 88.800 296.209,89.078 296.400,89.417 296.400 C 92.002 296.400,95.175 312.636,93.135 315.427 C 92.830 315.844,92.505 317.844,92.115 321.700 C 92.009 322.745,91.760 323.499,91.561 323.376 C 91.363 323.253,91.200 323.783,91.200 324.553 C 91.200 325.323,91.020 326.064,90.800 326.200 C 90.580 326.336,90.400 326.797,90.400 327.224 C 90.400 327.651,90.220 328.000,90.000 328.000 C 89.780 328.000,89.600 328.551,89.600 329.224 C 89.600 329.937,89.433 330.344,89.200 330.200 C 88.980 330.064,88.800 330.198,88.800 330.497 C 88.800 331.251,87.865 333.193,87.500 333.197 C 87.335 333.199,87.200 333.558,87.200 333.997 C 87.200 334.435,86.840 335.018,86.400 335.293 C 85.960 335.568,85.600 336.016,85.600 336.289 C 85.600 337.406,78.154 344.800,77.029 344.800 C 76.730 344.800,76.381 345.072,76.254 345.404 C 76.127 345.736,75.882 345.986,75.711 345.960 C 75.115 345.871,73.610 346.493,73.776 346.761 C 73.867 346.909,73.460 347.070,72.871 347.119 C 72.282 347.167,71.740 347.385,71.667 347.603 C 71.593 347.822,71.188 348.000,70.767 348.000 C 70.181 348.000,70.000 348.284,70.000 349.200 C 70.000 350.371,70.047 350.400,71.976 350.400 C 73.063 350.400,74.067 350.584,74.206 350.810 C 74.537 351.345,100.281 351.316,100.613 350.779 C 100.742 350.571,102.647 350.400,104.847 350.400 C 107.412 350.400,108.759 350.256,108.600 350.000 C 108.443 349.747,109.470 349.600,111.400 349.600 C 113.330 349.600,114.357 349.453,114.200 349.200 C 114.045 348.949,114.937 348.800,116.600 348.800 C 118.263 348.800,119.155 348.651,119.000 348.400 C 118.846 348.150,119.663 348.000,121.176 348.000 C 122.525 348.000,123.600 347.823,123.600 347.600 C 123.600 347.380,124.320 347.200,125.200 347.200 C 126.080 347.200,126.800 347.020,126.800 346.800 C 126.800 346.580,127.599 346.400,128.576 346.400 C 129.553 346.400,130.464 346.220,130.600 346.000 C 130.736 345.780,131.456 345.600,132.200 345.600 C 132.944 345.600,133.664 345.420,133.800 345.200 C 133.936 344.980,134.487 344.800,135.024 344.800 C 135.561 344.800,136.000 344.639,136.000 344.442 C 136.000 344.245,136.675 343.985,137.500 343.865 C 140.341 343.449,141.600 343.108,141.600 342.755 C 141.600 342.560,142.320 342.400,143.200 342.400 C 144.080 342.400,144.800 342.220,144.800 342.000 C 144.800 341.780,145.329 341.600,145.976 341.600 C 146.623 341.600,147.245 341.451,147.357 341.270 C 147.469 341.088,148.740 340.602,150.180 340.190 C 151.621 339.778,152.800 339.297,152.800 339.121 C 152.800 338.944,152.935 338.844,153.100 338.899 C 153.671 339.086,157.001 337.833,157.325 337.309 C 157.503 337.020,157.838 336.900,158.069 337.043 C 158.300 337.186,158.604 337.144,158.745 336.951 C 159.227 336.287,160.791 335.600,161.818 335.600 C 162.402 335.600,162.740 335.427,162.600 335.200 C 162.460 334.973,162.796 334.800,163.376 334.800 C 163.939 334.800,164.400 334.620,164.400 334.400 C 164.400 334.180,164.760 334.000,165.200 334.000 C 165.640 334.000,166.000 333.820,166.000 333.600 C 166.000 333.380,166.360 333.200,166.800 333.200 C 167.240 333.200,167.601 333.065,167.603 332.900 C 167.607 332.535,169.549 331.600,170.303 331.600 C 170.602 331.600,170.736 331.420,170.600 331.200 C 170.464 330.980,170.628 330.800,170.964 330.800 C 171.609 330.800,173.879 329.618,175.662 328.353 C 176.246 327.939,177.061 327.600,177.473 327.600 C 177.886 327.600,178.483 327.240,178.800 326.800 C 179.117 326.360,179.697 326.000,180.088 326.000 C 180.480 326.000,180.800 325.820,180.800 325.600 C 180.800 325.380,181.036 325.200,181.325 325.200 C 181.613 325.200,182.205 324.885,182.640 324.500 C 183.075 324.115,183.668 323.749,183.958 323.686 C 184.248 323.623,184.749 323.308,185.071 322.986 C 185.394 322.664,185.895 322.400,186.186 322.400 C 186.477 322.400,186.822 322.119,186.954 321.775 C 187.086 321.431,187.343 321.241,187.525 321.354 C 187.708 321.467,188.559 320.952,189.417 320.210 C 190.275 319.469,191.117 318.949,191.288 319.055 C 191.460 319.161,191.600 319.057,191.600 318.824 C 191.600 318.533,196.250 318.400,206.400 318.400 C 216.000 318.400,221.200 318.259,221.200 318.000 C 221.200 317.757,222.973 317.600,225.720 317.600 C 228.206 317.600,230.411 317.430,230.620 317.222 C 230.829 317.015,232.401 316.808,234.113 316.764 C 235.825 316.719,237.320 316.529,237.436 316.341 C 237.552 316.154,238.897 316.000,240.424 316.000 C 242.008 316.000,243.200 315.828,243.200 315.600 C 243.200 315.378,244.267 315.200,245.600 315.200 C 246.933 315.200,248.000 315.022,248.000 314.800 C 248.000 314.578,249.067 314.400,250.400 314.400 C 251.733 314.400,252.800 314.222,252.800 314.000 C 252.800 313.780,253.790 313.600,255.000 313.600 C 256.210 313.600,257.200 313.420,257.200 313.200 C 257.200 312.980,257.920 312.800,258.800 312.800 C 259.680 312.800,260.400 312.620,260.400 312.400 C 260.400 312.180,261.300 312.000,262.400 312.000 C 263.500 312.000,264.400 311.820,264.400 311.600 C 264.400 311.380,265.120 311.200,266.000 311.200 C 266.880 311.200,267.600 311.020,267.600 310.800 C 267.600 310.580,268.331 310.400,269.224 310.400 C 270.204 310.400,270.749 310.242,270.600 310.000 C 270.451 309.758,270.996 309.600,271.976 309.600 C 272.869 309.600,273.600 309.420,273.600 309.200 C 273.600 308.980,274.320 308.800,275.200 308.800 C 276.080 308.800,276.800 308.620,276.800 308.400 C 276.800 308.180,277.520 308.000,278.400 308.000 C 279.352 308.000,280.000 307.811,280.000 307.533 C 280.000 307.277,280.109 307.175,280.241 307.308 C 280.374 307.440,280.959 307.363,281.541 307.137 C 282.124 306.910,282.960 306.654,283.400 306.568 C 283.840 306.482,284.787 306.299,285.505 306.160 C 286.223 306.021,286.908 305.749,287.029 305.554 C 287.149 305.359,287.665 305.200,288.175 305.200 C 288.685 305.200,289.317 304.941,289.580 304.624 C 289.843 304.307,290.297 304.139,290.589 304.251 C 290.880 304.363,291.238 304.262,291.383 304.027 C 291.528 303.792,292.177 303.600,292.824 303.600 C 293.471 303.600,294.000 303.420,294.000 303.200 C 294.000 302.980,294.439 302.800,294.976 302.800 C 295.513 302.800,296.064 302.620,296.200 302.400 C 296.336 302.180,296.797 302.000,297.224 302.000 C 297.651 302.000,298.000 301.850,298.000 301.667 C 298.000 301.483,298.270 301.303,298.600 301.267 C 298.930 301.230,299.470 301.170,299.800 301.133 C 300.130 301.097,300.400 300.933,300.400 300.770 C 300.400 300.607,301.300 300.243,302.400 299.961 C 303.500 299.679,304.400 299.303,304.400 299.124 C 304.400 298.946,304.749 298.800,305.176 298.800 C 305.603 298.800,306.064 298.620,306.200 298.400 C 306.336 298.180,306.807 298.000,307.247 298.000 C 307.687 298.000,307.936 297.820,307.800 297.600 C 307.660 297.373,307.996 297.200,308.576 297.200 C 309.139 297.200,309.600 297.020,309.600 296.800 C 309.600 296.580,309.960 296.400,310.400 296.400 C 310.840 296.400,311.200 296.209,311.200 295.976 C 311.200 295.743,311.368 295.656,311.572 295.783 C 311.777 295.909,312.053 295.838,312.185 295.624 C 312.317 295.410,312.690 295.336,313.013 295.460 C 313.336 295.584,313.600 295.486,313.600 295.243 C 313.600 294.999,313.960 294.800,314.400 294.800 C 314.840 294.800,315.200 294.620,315.200 294.400 C 315.200 294.180,315.560 294.000,316.000 294.000 C 316.440 294.000,316.800 293.820,316.800 293.600 C 316.800 293.380,317.160 293.200,317.600 293.200 C 318.040 293.200,318.400 293.020,318.400 292.800 C 318.400 292.580,318.745 292.400,319.167 292.400 C 319.588 292.400,319.997 292.210,320.074 291.978 C 320.151 291.746,320.534 291.510,320.925 291.452 C 321.315 291.395,321.972 291.059,322.384 290.707 C 322.795 290.354,323.236 290.170,323.364 290.297 C 323.491 290.424,323.911 290.251,324.298 289.912 C 324.684 289.572,325.405 289.171,325.900 289.020 C 326.395 288.870,326.800 288.568,326.800 288.349 C 326.800 288.131,326.969 288.057,327.176 288.185 C 327.383 288.313,327.909 288.035,328.346 287.566 C 328.782 287.098,329.314 286.823,329.527 286.955 C 329.741 287.087,330.018 286.929,330.143 286.604 C 330.283 286.239,330.629 286.113,331.050 286.275 C 331.454 286.429,331.632 286.375,331.487 286.141 C 331.353 285.923,331.863 285.521,332.621 285.247 C 333.412 284.961,334.000 284.475,334.000 284.107 C 334.000 283.755,334.111 283.578,334.248 283.714 C 334.384 283.850,334.767 283.690,335.099 283.358 C 335.431 283.026,335.989 282.864,336.339 282.998 C 336.689 283.132,336.849 283.116,336.694 282.961 C 336.323 282.589,337.609 281.629,338.500 281.613 C 338.885 281.606,339.200 281.450,339.200 281.268 C 339.200 281.085,339.695 280.681,340.300 280.370 C 340.905 280.060,341.681 279.500,342.025 279.128 C 342.369 278.755,342.900 278.394,343.205 278.325 C 343.718 278.209,344.389 277.702,346.414 275.900 C 346.846 275.515,347.380 275.200,347.600 275.200 C 347.820 275.200,348.000 275.020,348.000 274.800 C 348.000 274.580,348.360 274.400,348.800 274.400 C 349.240 274.400,349.601 274.265,349.603 274.100 C 349.604 273.935,350.271 273.350,351.084 272.800 C 353.113 271.428,354.803 269.736,354.473 269.406 C 354.323 269.256,354.391 269.193,354.624 269.267 C 354.988 269.381,356.526 268.244,359.649 265.553 C 360.062 265.197,360.400 264.672,360.400 264.386 C 360.400 264.101,360.517 263.983,360.659 264.126 C 360.802 264.269,361.267 263.984,361.693 263.493 C 362.119 263.002,362.606 262.600,362.775 262.600 C 363.352 262.600,365.153 261.047,364.952 260.723 C 364.843 260.545,365.033 260.400,365.376 260.400 C 365.719 260.400,366.000 260.170,366.000 259.889 C 366.000 259.323,368.261 257.200,368.865 257.200 C 369.075 257.200,369.136 257.020,369.000 256.800 C 368.864 256.580,368.956 256.400,369.205 256.400 C 369.843 256.400,370.893 255.275,370.639 254.863 C 370.523 254.675,370.857 254.291,371.382 254.010 C 372.005 253.676,372.256 253.274,372.104 252.849 C 371.977 252.492,372.022 252.335,372.204 252.501 C 372.549 252.814,376.800 248.574,376.800 247.917 C 376.800 247.711,377.025 247.292,377.300 246.985 C 378.523 245.622,379.000 245.003,379.000 244.781 C 379.000 244.650,379.317 244.225,379.706 243.837 C 380.094 243.449,380.770 242.343,381.209 241.380 C 381.811 240.058,382.170 239.690,382.669 239.882 C 383.097 240.046,383.234 239.979,383.057 239.692 C 382.906 239.448,383.282 238.764,383.891 238.173 C 384.760 237.330,384.829 237.156,384.212 237.369 C 383.779 237.520,383.552 237.514,383.709 237.358 C 383.865 237.202,383.770 236.787,383.497 236.437 C 383.061 235.878,383.083 235.865,383.679 236.332 C 384.203 236.741,384.523 236.757,385.079 236.401 C 385.773 235.957,385.773 235.948,385.079 236.165 C 384.574 236.323,384.451 236.243,384.668 235.895 C 384.838 235.623,385.018 235.135,385.066 234.811 C 385.115 234.487,385.453 234.004,385.818 233.738 C 386.182 233.471,386.361 233.061,386.216 232.827 C 386.071 232.592,386.214 232.400,386.534 232.400 C 386.853 232.400,387.222 232.119,387.354 231.775 C 387.486 231.431,387.776 231.261,387.997 231.398 C 388.219 231.535,388.400 231.476,388.400 231.266 C 388.400 229.548,384.605 230.211,383.632 232.100 C 383.320 232.705,382.915 233.200,382.732 233.200 C 382.550 233.200,382.400 233.436,382.400 233.725 C 382.400 234.013,382.080 234.598,381.689 235.025 C 381.298 235.451,380.536 236.430,379.995 237.200 C 378.698 239.046,378.098 239.773,376.278 241.700 C 375.441 242.586,374.281 243.961,373.700 244.756 C 372.348 246.605,361.682 257.239,358.811 259.600 C 357.608 260.590,356.168 261.799,355.611 262.287 C 353.548 264.095,350.103 266.728,346.800 269.020 C 344.930 270.318,343.174 271.597,342.898 271.864 C 342.621 272.130,342.036 272.462,341.598 272.601 C 341.159 272.740,340.800 273.000,340.800 273.178 C 340.800 273.357,340.260 273.727,339.600 274.000 C 338.940 274.273,338.400 274.655,338.400 274.849 C 338.400 275.042,338.207 275.200,337.972 275.200 C 337.737 275.200,336.759 275.740,335.800 276.400 C 334.841 277.060,333.863 277.600,333.628 277.600 C 333.393 277.600,333.199 277.735,333.197 277.900 C 333.195 278.065,332.790 278.398,332.297 278.640 C 330.610 279.469,327.800 281.000,327.600 281.200 C 327.107 281.693,317.412 286.659,314.800 287.756 C 313.810 288.172,312.291 288.847,311.425 289.256 C 310.559 289.665,309.614 290.000,309.325 290.000 C 309.036 290.000,308.800 290.180,308.800 290.400 C 308.800 290.620,308.528 290.800,308.195 290.800 C 307.862 290.800,307.277 290.959,306.895 291.153 C 306.173 291.521,304.382 292.284,303.000 292.814 C 302.560 292.982,301.347 293.498,300.304 293.960 C 299.262 294.422,298.173 294.800,297.884 294.800 C 297.596 294.800,297.189 294.949,296.980 295.130 C 296.771 295.312,295.790 295.705,294.800 296.002 C 293.810 296.300,292.820 296.654,292.600 296.789 C 292.149 297.064,291.305 297.341,284.800 299.348 C 278.145 301.401,273.527 302.639,270.896 303.073 C 270.179 303.192,269.494 303.449,269.373 303.644 C 269.252 303.840,268.544 304.000,267.800 304.000 C 267.056 304.000,266.348 304.161,266.226 304.358 C 266.105 304.555,265.329 304.818,264.503 304.942 C 263.676 305.067,262.280 305.277,261.400 305.409 C 260.520 305.542,259.440 305.805,259.000 305.994 C 258.560 306.184,257.390 306.457,256.400 306.602 C 255.410 306.747,253.655 307.031,252.500 307.233 C 244.891 308.563,242.022 309.016,237.400 309.613 C 226.238 311.057,217.572 311.647,203.200 311.941 L 190.600 312.200 186.600 314.834 C 182.691 317.408,179.009 319.606,176.600 320.803 C 175.940 321.131,175.310 321.489,175.200 321.599 C 175.090 321.710,174.190 322.231,173.200 322.757 C 158.101 330.785,139.802 337.477,123.800 340.823 C 111.433 343.409,104.369 344.363,95.300 344.672 C 87.797 344.928,87.952 345.065,91.524 341.363 C 98.406 334.231,103.289 315.725,101.670 302.908 C 100.938 297.109,100.459 296.284,96.821 294.556 C 90.402 291.507,80.181 286.276,77.708 284.773 C 76.284 283.908,75.037 283.200,74.937 283.200 C 74.838 283.200,73.696 282.480,72.400 281.600 C 71.104 280.720,69.854 280.000,69.622 280.000 C 69.390 280.000,69.200 279.820,69.200 279.600 C 69.200 279.380,68.964 279.200,68.675 279.200 C 68.387 279.200,67.764 278.840,67.292 278.400 C 66.820 277.960,66.246 277.600,66.017 277.600 C 65.788 277.600,65.600 277.420,65.600 277.200 C 65.600 276.980,65.330 276.800,65.000 276.800 C 64.670 276.800,64.400 276.620,64.400 276.400 C 64.400 276.180,64.145 276.000,63.833 276.000 C 63.522 276.000,63.207 275.853,63.133 275.672 C 63.060 275.492,61.830 274.561,60.400 273.602 C 58.970 272.644,57.710 271.748,57.600 271.611 C 57.490 271.474,56.770 270.925,56.000 270.391 C 54.026 269.022,46.399 262.821,45.200 261.610 C 44.650 261.054,43.210 259.765,42.000 258.744 C 39.037 256.244,34.407 251.655,31.000 247.840 C 29.460 246.115,27.750 244.200,27.200 243.583 C 26.650 242.966,25.570 241.700,24.800 240.769 C 24.030 239.837,23.175 238.846,22.900 238.566 C 22.625 238.286,22.400 237.904,22.400 237.717 C 22.400 237.530,22.040 237.117,21.600 236.800 C 21.160 236.483,20.800 236.020,20.800 235.771 C 20.800 235.522,20.260 234.754,19.600 234.063 C 18.940 233.372,18.400 232.602,18.400 232.351 C 18.400 230.878,14.294 229.780,12.100 230.665 " stroke="none" fill="#a6a6a6" fill-rule="evenodd"/><path id="path3" d="M180.800 49.200 C 180.800 49.443,179.000 49.600,176.200 49.600 C 172.790 49.600,171.598 49.729,171.594 50.100 C 171.590 50.433,171.458 50.400,171.200 50.000 C 170.942 49.600,170.810 49.567,170.806 49.900 C 170.802 50.262,169.817 50.400,167.233 50.400 C 165.272 50.400,163.607 50.567,163.533 50.772 C 163.460 50.976,162.140 51.185,160.600 51.235 C 159.060 51.285,157.702 51.474,157.583 51.653 C 157.463 51.833,156.421 52.013,155.267 52.054 C 154.113 52.095,153.075 52.279,152.960 52.464 C 152.846 52.649,151.673 52.800,150.353 52.800 C 148.855 52.800,148.046 52.950,148.200 53.200 C 148.354 53.450,147.545 53.600,146.047 53.600 C 144.727 53.600,143.536 53.780,143.400 54.000 C 143.264 54.220,142.353 54.400,141.376 54.400 C 140.399 54.400,139.600 54.580,139.600 54.800 C 139.600 55.020,138.981 55.200,138.224 55.200 C 137.467 55.200,136.736 55.380,136.600 55.600 C 136.464 55.820,135.589 56.000,134.656 56.000 C 133.723 56.000,132.789 56.165,132.580 56.366 C 132.371 56.568,131.570 56.789,130.800 56.858 C 130.030 56.926,129.303 57.116,129.184 57.279 C 129.066 57.441,128.391 57.618,127.684 57.672 C 126.978 57.726,126.400 57.912,126.400 58.085 C 126.400 58.258,125.860 58.400,125.200 58.400 C 124.540 58.400,124.000 58.574,124.000 58.787 C 124.000 59.001,123.730 59.071,123.399 58.944 C 122.614 58.643,120.707 59.126,120.974 59.558 C 121.088 59.742,120.631 59.829,119.958 59.750 C 119.279 59.671,118.493 59.850,118.190 60.153 C 117.890 60.453,117.206 60.614,116.669 60.511 C 116.133 60.409,115.572 60.522,115.423 60.762 C 115.275 61.003,114.749 61.200,114.256 61.200 C 113.763 61.200,113.185 61.375,112.971 61.589 C 112.758 61.802,112.227 62.046,111.791 62.129 C 111.356 62.213,110.550 62.467,110.000 62.694 C 109.450 62.921,108.837 63.009,108.638 62.891 C 108.439 62.773,108.405 62.884,108.562 63.138 C 108.741 63.428,108.552 63.600,108.057 63.600 C 107.622 63.600,107.176 63.825,107.065 64.100 C 106.904 64.500,106.857 64.500,106.832 64.100 C 106.814 63.825,106.609 63.600,106.376 63.600 C 106.143 63.600,106.064 63.780,106.200 64.000 C 106.339 64.225,106.018 64.400,105.466 64.400 C 104.927 64.400,104.387 64.656,104.267 64.969 C 104.129 65.328,103.730 65.454,103.184 65.312 C 102.708 65.187,102.191 65.290,102.037 65.541 C 101.882 65.791,101.283 66.035,100.706 66.083 C 100.130 66.131,99.745 66.312,99.852 66.485 C 99.960 66.658,99.602 66.800,99.057 66.800 C 98.512 66.800,98.007 66.978,97.933 67.197 C 97.860 67.415,97.305 67.634,96.700 67.684 C 96.095 67.734,95.600 67.915,95.600 68.087 C 95.600 68.259,95.240 68.400,94.800 68.400 C 94.360 68.400,94.000 68.580,94.000 68.800 C 94.000 69.020,93.565 69.200,93.033 69.200 C 92.502 69.200,92.007 69.366,91.933 69.570 C 91.860 69.773,91.534 69.998,91.210 70.070 C 90.885 70.141,90.375 70.427,90.077 70.704 C 89.779 70.981,89.370 71.105,89.168 70.980 C 88.965 70.855,88.800 70.943,88.800 71.176 C 88.800 71.409,88.455 71.600,88.033 71.600 C 87.612 71.600,87.207 71.778,87.133 71.997 C 87.060 72.215,86.518 72.433,85.929 72.481 C 85.340 72.530,84.945 72.712,85.052 72.885 C 85.218 73.152,84.667 73.276,83.770 73.174 C 83.643 73.159,83.193 73.547,82.770 74.035 C 82.323 74.550,82.000 74.703,82.000 74.400 C 82.000 74.103,81.654 74.276,81.200 74.800 C 80.760 75.307,80.400 75.513,80.400 75.258 C 80.400 74.723,79.170 75.314,77.730 76.542 C 77.251 76.950,76.666 77.164,76.430 77.018 C 76.193 76.872,76.000 77.017,76.000 77.339 C 76.000 77.728,75.731 77.855,75.200 77.716 C 74.661 77.575,74.400 77.704,74.400 78.110 C 74.400 78.658,72.673 79.440,71.870 79.256 C 71.689 79.214,71.643 79.345,71.768 79.547 C 71.892 79.749,71.546 80.027,70.997 80.165 C 70.449 80.303,70.000 80.575,70.000 80.770 C 70.000 80.965,69.610 81.023,69.133 80.898 C 68.431 80.715,68.316 80.805,68.533 81.369 C 68.710 81.831,68.633 82.011,68.304 81.901 C 68.031 81.810,67.566 81.977,67.271 82.272 C 66.977 82.566,66.542 82.688,66.306 82.542 C 66.070 82.396,65.975 82.439,66.096 82.638 C 66.380 83.105,65.622 83.762,64.600 83.937 C 64.160 84.012,63.740 84.237,63.667 84.437 C 63.593 84.636,63.143 84.803,62.667 84.806 C 61.960 84.811,61.911 84.884,62.400 85.200 C 62.872 85.505,62.776 85.589,61.955 85.594 C 61.365 85.597,60.450 86.059,59.855 86.655 C 59.275 87.235,58.800 87.567,58.800 87.393 C 58.800 87.220,58.464 87.465,58.053 87.939 C 57.642 88.412,57.002 88.800,56.629 88.800 C 56.257 88.800,56.064 88.980,56.200 89.200 C 56.336 89.420,56.188 89.600,55.870 89.600 C 55.553 89.600,55.199 89.960,55.084 90.400 C 54.945 90.934,54.538 91.200,53.864 91.200 C 53.205 91.200,52.766 91.478,52.600 92.000 C 52.460 92.440,52.088 92.800,51.773 92.800 C 51.458 92.800,51.200 92.980,51.200 93.200 C 51.200 93.420,51.009 93.600,50.776 93.600 C 50.543 93.600,50.480 93.375,50.635 93.100 C 50.791 92.825,50.486 93.047,49.959 93.592 C 49.431 94.138,49.039 94.705,49.086 94.851 C 49.134 94.998,48.839 95.031,48.431 94.924 C 48.024 94.818,47.552 94.954,47.383 95.227 C 47.173 95.568,47.240 95.622,47.600 95.400 C 47.946 95.186,48.027 95.233,47.838 95.538 C 47.681 95.792,47.321 96.000,47.038 96.000 C 46.344 96.000,44.748 97.415,45.074 97.741 C 45.217 97.883,45.053 98.000,44.709 98.000 C 44.366 98.000,43.972 98.296,43.833 98.657 C 43.695 99.019,43.474 99.207,43.343 99.076 C 42.995 98.729,42.000 99.837,42.000 100.571 C 42.000 100.933,41.661 101.200,41.200 101.200 C 40.742 101.200,40.400 101.467,40.400 101.824 C 40.400 102.167,40.247 102.353,40.060 102.237 C 39.873 102.122,39.491 102.457,39.210 102.982 C 38.923 103.517,38.462 103.845,38.160 103.729 C 37.499 103.476,36.254 104.640,36.595 105.192 C 36.738 105.423,36.578 105.490,36.216 105.351 C 35.744 105.170,35.658 105.286,35.865 105.825 C 36.069 106.356,35.984 106.480,35.536 106.308 C 35.174 106.168,34.933 106.303,34.933 106.644 C 34.933 107.024,35.208 107.137,35.767 106.987 C 36.515 106.785,36.528 106.807,35.892 107.205 C 35.502 107.450,35.293 107.863,35.426 108.125 C 35.560 108.386,35.277 108.150,34.797 107.600 C 34.239 106.959,34.003 106.844,34.142 107.280 C 34.303 107.782,34.190 107.894,33.710 107.710 C 33.230 107.526,33.126 107.630,33.310 108.110 C 33.494 108.589,33.390 108.694,32.914 108.512 C 32.484 108.347,32.365 108.420,32.558 108.732 C 32.717 108.989,32.657 109.200,32.424 109.200 C 31.886 109.200,30.167 110.900,30.300 111.300 C 30.355 111.465,30.175 111.555,29.900 111.500 C 29.625 111.445,29.445 111.625,29.500 111.900 C 29.555 112.175,29.379 112.355,29.109 112.300 C 28.840 112.245,28.557 112.604,28.482 113.098 C 28.382 113.754,28.503 113.935,28.932 113.771 C 29.255 113.647,29.615 113.700,29.732 113.890 C 29.849 114.079,29.558 114.263,29.085 114.299 C 28.612 114.334,28.087 114.147,27.918 113.882 C 27.684 113.514,27.611 113.512,27.606 113.876 C 27.603 114.138,27.780 114.464,28.000 114.600 C 28.220 114.736,28.400 115.044,28.400 115.286 C 28.400 115.527,28.040 115.398,27.600 115.000 C 26.819 114.293,26.800 114.301,26.800 115.337 L 26.800 116.398 199.837 116.398 C 295.007 116.398,373.012 116.484,373.181 116.588 C 373.613 116.855,374.005 116.382,373.972 115.633 C 373.951 115.168,373.853 115.212,373.600 115.800 C 373.301 116.496,373.253 116.448,373.228 115.438 C 373.201 114.336,373.162 114.310,372.465 114.941 C 371.765 115.575,371.727 115.538,371.676 114.184 C 371.615 112.544,371.308 111.886,370.762 112.223 C 370.552 112.353,370.430 112.221,370.490 111.930 C 370.551 111.638,370.375 111.445,370.100 111.500 C 369.825 111.555,369.645 111.465,369.700 111.300 C 369.833 110.900,368.114 109.200,367.576 109.200 C 367.343 109.200,367.283 108.989,367.442 108.732 C 367.635 108.420,367.516 108.347,367.086 108.512 C 366.610 108.694,366.506 108.589,366.690 108.110 C 366.874 107.630,366.770 107.526,366.290 107.710 C 365.810 107.894,365.697 107.782,365.858 107.280 C 365.997 106.844,365.761 106.959,365.203 107.600 C 364.723 108.150,364.440 108.386,364.574 108.125 C 364.707 107.863,364.498 107.450,364.108 107.205 C 363.472 106.807,363.485 106.785,364.233 106.987 C 364.792 107.137,365.067 107.024,365.067 106.644 C 365.067 106.303,364.826 106.168,364.464 106.308 C 364.016 106.480,363.931 106.356,364.135 105.825 C 364.342 105.286,364.256 105.170,363.784 105.351 C 363.422 105.490,363.262 105.423,363.405 105.192 C 363.746 104.640,362.501 103.476,361.840 103.729 C 361.538 103.845,361.077 103.517,360.790 102.982 C 360.509 102.457,360.127 102.122,359.940 102.237 C 359.753 102.353,359.600 102.167,359.600 101.824 C 359.600 101.467,359.258 101.200,358.800 101.200 C 358.339 101.200,358.000 100.933,358.000 100.571 C 358.000 99.837,357.005 98.729,356.657 99.076 C 356.526 99.207,356.305 99.019,356.167 98.657 C 356.028 98.296,355.634 98.000,355.291 98.000 C 354.947 98.000,354.783 97.883,354.926 97.741 C 355.252 97.415,353.656 96.000,352.962 96.000 C 352.679 96.000,352.319 95.792,352.162 95.538 C 351.973 95.233,352.054 95.186,352.400 95.400 C 352.760 95.622,352.827 95.568,352.617 95.227 C 352.448 94.954,351.976 94.818,351.569 94.924 C 351.161 95.031,350.866 94.998,350.914 94.851 C 350.961 94.705,350.569 94.138,350.041 93.592 C 349.514 93.047,349.209 92.825,349.365 93.100 C 349.520 93.375,349.457 93.600,349.224 93.600 C 348.991 93.600,348.800 93.420,348.800 93.200 C 348.800 92.980,348.542 92.800,348.227 92.800 C 347.912 92.800,347.540 92.440,347.400 92.000 C 347.234 91.478,346.795 91.200,346.136 91.200 C 345.462 91.200,345.055 90.934,344.916 90.400 C 344.801 89.960,344.447 89.600,344.130 89.600 C 343.812 89.600,343.664 89.420,343.800 89.200 C 343.936 88.980,343.743 88.800,343.371 88.800 C 342.998 88.800,342.358 88.412,341.947 87.939 C 341.536 87.465,341.200 87.220,341.200 87.393 C 341.200 87.567,340.725 87.235,340.145 86.655 C 339.550 86.059,338.635 85.597,338.045 85.594 C 337.224 85.589,337.128 85.505,337.600 85.200 C 338.089 84.884,338.040 84.811,337.333 84.806 C 336.857 84.803,336.407 84.636,336.333 84.437 C 336.260 84.237,335.840 84.012,335.400 83.937 C 334.378 83.762,333.620 83.105,333.904 82.638 C 334.025 82.439,333.930 82.396,333.694 82.542 C 333.458 82.688,333.023 82.566,332.729 82.272 C 332.434 81.977,331.969 81.810,331.696 81.901 C 331.367 82.011,331.290 81.831,331.467 81.369 C 331.684 80.805,331.569 80.715,330.867 80.898 C 330.390 81.023,330.000 80.965,330.000 80.770 C 330.000 80.575,329.551 80.303,329.003 80.165 C 328.454 80.027,328.108 79.749,328.232 79.547 C 328.357 79.345,328.311 79.214,328.130 79.256 C 327.327 79.440,325.600 78.658,325.600 78.110 C 325.600 77.704,325.339 77.575,324.800 77.716 C 324.269 77.855,324.000 77.728,324.000 77.339 C 324.000 77.017,323.807 76.872,323.570 77.018 C 323.334 77.164,322.749 76.950,322.270 76.542 C 320.830 75.314,319.600 74.723,319.600 75.258 C 319.600 75.513,319.240 75.307,318.800 74.800 C 318.346 74.276,318.000 74.103,318.000 74.400 C 318.000 74.703,317.677 74.550,317.230 74.035 C 316.807 73.547,316.357 73.159,316.230 73.174 C 315.333 73.276,314.782 73.152,314.948 72.885 C 315.055 72.712,314.660 72.530,314.071 72.481 C 313.482 72.433,312.940 72.215,312.867 71.997 C 312.793 71.778,312.388 71.600,311.967 71.600 C 311.545 71.600,311.200 71.409,311.200 71.176 C 311.200 70.943,311.035 70.855,310.832 70.980 C 310.630 71.105,310.221 70.981,309.923 70.704 C 309.625 70.427,309.115 70.141,308.790 70.070 C 308.466 69.998,308.140 69.773,308.067 69.570 C 307.993 69.366,307.498 69.200,306.967 69.200 C 306.435 69.200,306.000 69.020,306.000 68.800 C 306.000 68.580,305.640 68.400,305.200 68.400 C 304.760 68.400,304.400 68.259,304.400 68.087 C 304.400 67.915,303.905 67.734,303.300 67.684 C 302.695 67.634,302.140 67.415,302.067 67.197 C 301.993 66.978,301.488 66.800,300.943 66.800 C 300.398 66.800,300.040 66.658,300.148 66.485 C 300.255 66.312,299.870 66.131,299.294 66.083 C 298.717 66.035,298.118 65.791,297.963 65.541 C 297.809 65.290,297.292 65.187,296.816 65.312 C 296.270 65.454,295.871 65.328,295.733 64.969 C 295.613 64.656,295.073 64.400,294.534 64.400 C 293.982 64.400,293.661 64.225,293.800 64.000 C 293.936 63.780,293.872 63.600,293.657 63.600 C 293.442 63.600,293.176 63.825,293.065 64.100 C 292.904 64.500,292.857 64.500,292.832 64.100 C 292.814 63.825,292.429 63.600,291.976 63.600 C 291.456 63.600,291.258 63.430,291.438 63.138 C 291.595 62.884,291.561 62.773,291.362 62.891 C 291.163 63.009,290.550 62.921,290.000 62.694 C 289.450 62.467,288.644 62.213,288.209 62.129 C 287.773 62.046,287.242 61.802,287.029 61.589 C 286.815 61.375,286.237 61.200,285.744 61.200 C 285.251 61.200,284.725 61.003,284.577 60.762 C 284.428 60.522,283.867 60.409,283.331 60.511 C 282.794 60.614,282.110 60.453,281.810 60.153 C 281.507 59.850,280.721 59.671,280.042 59.750 C 279.369 59.829,278.912 59.742,279.026 59.558 C 279.293 59.126,277.386 58.643,276.601 58.944 C 276.270 59.071,276.000 59.001,276.000 58.787 C 276.000 58.574,275.460 58.400,274.800 58.400 C 274.140 58.400,273.600 58.258,273.600 58.085 C 273.600 57.912,273.022 57.726,272.316 57.672 C 271.609 57.618,270.934 57.441,270.816 57.279 C 270.697 57.116,269.970 56.926,269.200 56.858 C 268.430 56.789,267.629 56.568,267.420 56.366 C 267.211 56.165,266.277 56.000,265.344 56.000 C 264.411 56.000,263.536 55.820,263.400 55.600 C 263.264 55.380,262.533 55.200,261.776 55.200 C 261.019 55.200,260.400 55.020,260.400 54.800 C 260.400 54.580,259.601 54.400,258.624 54.400 C 257.647 54.400,256.736 54.220,256.600 54.000 C 256.464 53.780,255.273 53.600,253.953 53.600 C 252.455 53.600,251.646 53.450,251.800 53.200 C 251.954 52.950,251.145 52.800,249.647 52.800 C 248.327 52.800,247.154 52.649,247.040 52.464 C 246.925 52.279,245.887 52.095,244.733 52.054 C 243.579 52.013,242.537 51.833,242.417 51.653 C 242.298 51.474,240.940 51.285,239.400 51.235 C 237.860 51.185,236.540 50.976,236.467 50.772 C 236.393 50.567,234.728 50.400,232.767 50.400 C 230.183 50.400,229.198 50.262,229.194 49.900 C 229.190 49.567,229.058 49.600,228.800 50.000 C 228.542 50.400,228.410 50.433,228.406 50.100 C 228.402 49.729,227.210 49.600,223.800 49.600 C 221.000 49.600,219.200 49.443,219.200 49.200 C 219.200 48.939,212.533 48.800,200.000 48.800 C 187.467 48.800,180.800 48.939,180.800 49.200 M24.000 118.186 C 24.000 118.533,24.347 118.800,24.800 118.800 C 25.240 118.800,25.600 118.716,25.600 118.614 C 25.600 118.512,25.240 118.235,24.800 118.000 C 24.161 117.658,24.000 117.696,24.000 118.186 M374.976 118.187 C 374.219 118.760,374.223 118.775,375.100 118.787 C 375.639 118.795,376.000 118.559,376.000 118.200 C 376.000 117.459,375.941 117.458,374.976 118.187 M377.932 121.457 C 377.694 122.325,378.419 122.549,379.088 121.814 C 379.260 121.626,379.189 121.593,378.930 121.741 C 378.660 121.896,378.398 121.711,378.314 121.305 C 378.190 120.710,378.131 120.733,377.932 121.457 M18.446 125.300 C 18.421 125.685,18.220 126.000,18.000 126.000 C 17.780 126.000,17.600 126.255,17.600 126.567 C 17.600 126.878,17.375 127.235,17.100 127.360 C 16.825 127.484,16.960 127.533,17.400 127.469 C 17.840 127.405,18.161 127.157,18.114 126.917 C 18.064 126.665,18.399 126.563,18.914 126.676 C 19.446 126.792,19.619 126.736,19.346 126.535 C 19.097 126.351,18.803 125.840,18.693 125.400 C 18.530 124.751,18.484 124.732,18.446 125.300 M381.246 125.467 C 381.221 125.943,380.975 126.440,380.700 126.571 C 380.425 126.702,380.599 126.735,381.086 126.645 C 381.586 126.553,381.935 126.672,381.886 126.917 C 381.839 127.157,382.160 127.405,382.600 127.469 C 383.040 127.533,383.175 127.484,382.900 127.360 C 382.625 127.235,382.400 126.878,382.400 126.567 C 382.400 126.255,382.233 126.000,382.029 126.000 C 381.825 126.000,381.576 125.685,381.476 125.300 C 381.333 124.754,381.283 124.790,381.246 125.467 M14.432 131.549 C 14.405 132.348,14.495 132.419,15.000 132.000 C 15.655 131.456,15.821 131.016,15.234 131.379 C 15.033 131.503,14.777 131.379,14.666 131.102 C 14.554 130.826,14.449 131.027,14.432 131.549 M385.232 131.124 C 385.213 131.433,384.996 131.524,384.700 131.347 C 384.399 131.166,384.433 131.333,384.785 131.767 C 385.384 132.504,385.848 132.048,385.465 131.100 C 385.310 130.715,385.256 130.721,385.232 131.124 M12.500 134.665 C 11.906 134.904,11.824 136.000,12.400 136.000 C 12.620 136.000,12.755 135.775,12.700 135.500 C 12.645 135.225,12.825 135.045,13.100 135.100 C 13.375 135.155,13.600 135.020,13.600 134.800 C 13.600 134.374,13.309 134.339,12.500 134.665 M386.400 134.800 C 386.400 135.020,386.625 135.155,386.900 135.100 C 387.175 135.045,387.355 135.225,387.300 135.500 C 387.245 135.775,387.380 136.000,387.600 136.000 C 388.246 136.000,388.058 134.908,387.367 134.643 C 386.514 134.315,386.400 134.334,386.400 134.800 M9.466 140.300 C 8.969 141.390,8.945 141.581,9.378 141.000 C 9.705 140.560,10.159 139.983,10.386 139.717 C 10.884 139.136,10.916 138.800,10.474 138.800 C 10.295 138.800,9.841 139.475,9.466 140.300 M389.200 139.017 C 389.200 139.136,389.386 139.451,389.614 139.717 C 389.841 139.983,390.295 140.560,390.622 141.000 C 391.055 141.581,391.031 141.390,390.534 140.300 C 389.953 139.021,389.200 138.298,389.200 139.017 " stroke="none" fill="#d3d3d3" fill-rule="evenodd"/><path id="path4" d="M104.289 153.426 C 92.988 156.165,83.413 167.662,83.658 178.200 C 83.702 180.064,83.727 180.010,84.029 177.400 C 86.238 158.295,105.903 147.540,122.997 156.088 C 128.073 158.626,131.393 161.939,134.555 167.621 C 135.996 170.209,136.421 170.607,135.514 168.519 C 130.573 157.140,116.680 150.425,104.289 153.426 M196.000 153.736 C 187.235 156.346,179.957 163.270,177.642 171.200 C 177.353 172.190,176.955 173.413,176.758 173.919 C 175.728 176.561,176.784 190.118,178.125 191.459 C 178.276 191.610,178.400 192.153,178.400 192.667 C 178.400 193.180,178.580 193.600,178.800 193.600 C 179.020 193.600,179.200 193.960,179.200 194.400 C 179.200 194.840,179.380 195.200,179.600 195.200 C 179.820 195.200,180.000 195.472,180.000 195.805 C 180.000 196.363,180.726 197.929,181.202 198.400 C 181.314 198.510,181.875 199.230,182.449 200.000 C 184.029 202.118,186.546 204.604,187.948 205.433 C 188.636 205.840,189.200 206.280,189.200 206.412 C 189.200 206.543,189.830 206.898,190.600 207.200 C 191.370 207.502,192.000 207.896,192.000 208.075 C 192.000 208.254,192.349 208.400,192.776 208.400 C 193.203 208.400,193.664 208.580,193.800 208.800 C 193.936 209.020,194.451 209.200,194.944 209.200 C 195.437 209.200,196.011 209.362,196.220 209.559 C 197.074 210.366,206.246 211.114,206.928 210.432 C 207.166 210.194,208.123 210.000,209.056 210.000 C 209.989 210.000,210.864 209.820,211.000 209.600 C 211.136 209.380,211.592 209.200,212.013 209.200 C 212.434 209.200,213.548 208.742,214.489 208.182 C 215.430 207.623,216.515 207.062,216.900 206.936 C 217.285 206.810,217.600 206.548,217.600 206.353 C 217.600 206.159,217.870 206.000,218.200 206.000 C 218.530 206.000,218.800 205.820,218.800 205.600 C 218.800 205.380,218.983 205.200,219.207 205.200 C 219.739 205.200,224.800 200.139,224.800 199.607 C 224.800 199.383,224.980 199.200,225.200 199.200 C 225.420 199.200,225.600 198.930,225.600 198.600 C 225.600 198.270,225.738 198.000,225.906 198.000 C 226.609 198.000,229.821 188.834,230.180 185.800 C 230.401 183.938,230.364 183.993,229.641 186.600 C 223.826 207.595,198.669 214.063,183.673 198.419 C 170.432 184.606,176.906 159.909,195.200 154.444 C 196.190 154.149,197.522 153.748,198.160 153.553 C 199.958 153.005,206.922 153.137,209.280 153.763 C 222.471 157.265,229.662 166.539,230.556 181.200 C 230.630 182.410,230.642 181.600,230.583 179.400 C 230.104 161.489,212.882 148.709,196.000 153.736 M290.000 153.365 C 279.871 155.800,272.074 163.518,269.558 173.600 C 268.502 177.828,269.093 188.627,270.464 190.180 C 270.649 190.389,270.800 190.938,270.800 191.400 C 270.800 191.862,270.950 192.411,271.134 192.620 C 271.318 192.829,271.795 193.900,272.196 195.000 C 273.573 198.784,279.745 206.000,281.605 206.000 C 281.822 206.000,282.000 206.180,282.000 206.400 C 282.000 206.620,282.255 206.800,282.567 206.800 C 282.878 206.800,283.193 206.935,283.267 207.100 C 283.641 207.942,287.663 209.397,292.443 210.420 C 295.148 210.999,302.877 210.412,303.780 209.559 C 303.989 209.362,304.574 209.200,305.080 209.200 C 305.586 209.200,306.000 209.020,306.000 208.800 C 306.000 208.580,306.360 208.400,306.800 208.400 C 307.240 208.400,307.600 208.220,307.600 208.000 C 307.600 207.780,307.960 207.600,308.400 207.600 C 308.840 207.600,309.200 207.450,309.200 207.268 C 309.200 207.085,309.694 206.680,310.297 206.368 C 313.864 204.523,320.000 197.326,320.000 194.988 C 320.000 194.665,320.180 194.400,320.400 194.400 C 320.620 194.400,320.800 193.950,320.800 193.400 C 320.800 192.850,320.980 192.400,321.200 192.400 C 321.420 192.400,321.600 192.028,321.600 191.574 C 321.600 191.119,321.762 190.444,321.961 190.074 C 322.159 189.703,322.426 188.500,322.555 187.400 L 322.789 185.400 322.251 187.240 C 314.812 212.690,279.151 213.720,270.531 188.734 C 268.913 184.042,269.035 175.504,270.785 171.000 C 272.684 166.113,279.689 157.200,281.631 157.200 C 281.876 157.200,282.554 156.870,283.138 156.466 C 295.023 148.253,314.672 155.078,320.855 169.568 C 321.473 171.016,321.983 171.898,321.989 171.529 C 322.044 168.142,314.918 159.375,309.600 156.288 C 304.301 153.212,295.869 151.954,290.000 153.365 M136.017 170.476 C 136.197 171.806,137.545 176.151,137.419 175.000 C 137.148 172.503,136.740 170.810,136.354 170.571 C 136.159 170.451,136.008 170.408,136.017 170.476 M322.280 173.891 C 322.590 175.900,322.800 176.061,322.800 174.290 C 322.800 173.497,322.631 172.743,322.424 172.615 C 322.199 172.476,322.141 172.991,322.280 173.891 M322.868 180.200 C 322.875 182.985,322.997 184.233,323.200 183.600 C 323.629 182.259,323.629 177.599,323.200 176.600 C 322.981 176.091,322.861 177.403,322.868 180.200 M137.734 180.000 C 137.734 181.650,137.805 182.325,137.891 181.500 C 137.978 180.675,137.978 179.325,137.891 178.500 C 137.805 177.675,137.734 178.350,137.734 180.000 M83.831 184.600 C 83.950 186.360,84.217 187.971,84.424 188.180 C 84.631 188.389,84.800 188.963,84.800 189.456 C 84.800 189.949,84.980 190.464,85.200 190.600 C 85.420 190.736,85.600 191.199,85.600 191.629 C 85.600 192.059,85.774 192.723,85.987 193.105 C 86.199 193.487,86.908 194.984,87.562 196.431 C 88.216 197.877,89.032 199.294,89.375 199.580 C 89.719 199.865,90.000 200.268,90.000 200.475 C 90.000 201.004,93.772 204.620,95.209 205.469 C 95.864 205.856,96.400 206.280,96.400 206.412 C 96.400 206.543,97.030 206.898,97.800 207.200 C 98.570 207.502,99.200 207.896,99.200 208.075 C 99.200 208.254,99.549 208.400,99.976 208.400 C 100.403 208.400,100.864 208.580,101.000 208.800 C 101.136 209.020,101.651 209.200,102.144 209.200 C 102.637 209.200,103.211 209.362,103.420 209.559 C 104.274 210.366,113.446 211.114,114.128 210.432 C 114.366 210.194,115.323 210.000,116.256 210.000 C 117.189 210.000,118.064 209.820,118.200 209.600 C 118.336 209.380,118.778 209.200,119.183 209.200 C 119.841 209.200,122.493 207.946,125.167 206.370 C 128.034 204.681,132.932 199.052,134.365 195.800 C 134.655 195.140,135.052 194.287,135.247 193.905 C 135.441 193.523,135.600 192.848,135.600 192.405 C 135.600 191.962,135.753 191.600,135.940 191.600 C 136.363 191.600,137.750 185.842,137.500 185.124 C 137.400 184.836,137.186 185.410,137.024 186.400 C 136.863 187.390,136.034 189.640,135.184 191.400 C 124.550 213.400,94.257 211.943,85.179 188.994 C 84.920 188.337,84.461 186.360,84.161 184.600 L 83.615 181.400 83.831 184.600 M0.062 191.043 C 0.169 196.394,0.350 198.458,0.753 198.943 C 1.173 199.449,1.191 199.729,0.830 200.164 C 0.509 200.550,0.494 200.811,0.781 200.988 C 1.011 201.131,1.200 201.942,1.200 202.790 C 1.200 203.639,1.364 204.393,1.564 204.467 C 1.765 204.540,1.985 205.320,2.054 206.200 C 2.189 207.924,2.921 209.020,3.640 208.575 C 3.945 208.387,3.996 208.584,3.800 209.200 C 3.605 209.813,3.655 210.013,3.957 209.826 C 4.201 209.676,4.400 209.743,4.400 209.976 C 4.400 210.209,3.995 210.403,3.500 210.406 C 2.797 210.411,2.727 210.493,3.181 210.780 C 3.500 210.982,3.905 211.058,4.081 210.950 C 4.579 210.642,4.455 211.385,3.920 211.920 C 3.547 212.293,3.633 212.400,4.307 212.400 C 4.952 212.400,5.109 212.571,4.919 213.066 C 4.733 213.553,4.816 213.652,5.232 213.436 C 5.663 213.212,5.655 213.268,5.200 213.670 C 4.344 214.426,4.162 215.777,4.957 215.472 C 5.297 215.342,5.698 215.435,5.849 215.679 C 6.022 215.959,5.940 216.010,5.629 215.818 C 5.091 215.485,5.149 217.212,5.690 217.617 C 5.849 217.737,6.036 218.206,6.106 218.659 C 6.286 219.840,7.566 221.668,8.018 221.389 C 8.228 221.259,8.400 221.444,8.400 221.800 C 8.400 222.156,8.220 222.336,8.000 222.200 C 7.397 221.827,7.520 223.035,8.137 223.548 C 8.432 223.793,8.792 223.875,8.937 223.730 C 9.082 223.585,9.200 223.777,9.200 224.157 C 9.200 224.577,9.019 224.735,8.738 224.562 C 8.441 224.378,8.385 224.453,8.583 224.773 C 8.752 225.046,9.230 225.181,9.645 225.072 C 10.115 224.950,10.400 225.083,10.400 225.425 C 10.400 225.749,10.154 225.881,9.800 225.745 C 9.435 225.604,9.200 225.744,9.200 226.102 C 9.200 226.517,9.523 226.640,10.300 226.520 C 11.232 226.377,11.293 226.419,10.700 226.796 C 9.795 227.370,9.795 228.099,10.700 227.919 C 11.519 227.756,12.797 229.142,12.512 229.885 C 12.404 230.166,12.136 230.284,11.915 230.148 C 11.662 229.991,11.693 229.790,12.000 229.600 C 12.347 229.386,12.359 229.222,12.043 229.026 C 11.799 228.876,11.600 228.954,11.600 229.200 C 11.600 229.446,11.437 229.546,11.237 229.423 C 11.038 229.300,10.962 229.534,11.069 229.944 C 11.241 230.601,11.578 230.667,13.932 230.502 C 16.638 230.314,18.400 231.043,18.400 232.351 C 18.400 232.602,18.940 233.372,19.600 234.063 C 20.260 234.754,20.800 235.522,20.800 235.771 C 20.800 236.020,21.160 236.483,21.600 236.800 C 22.040 237.117,22.400 237.530,22.400 237.717 C 22.400 237.904,22.625 238.286,22.900 238.566 C 23.175 238.846,24.030 239.837,24.800 240.769 C 25.570 241.700,26.650 242.966,27.200 243.583 C 27.750 244.200,29.460 246.115,31.000 247.840 C 34.407 251.655,39.037 256.244,42.000 258.744 C 43.210 259.765,44.650 261.054,45.200 261.610 C 46.399 262.821,54.026 269.022,56.000 270.391 C 56.770 270.925,57.490 271.474,57.600 271.611 C 57.710 271.748,58.970 272.644,60.400 273.602 C 61.830 274.561,63.060 275.492,63.133 275.672 C 63.207 275.853,63.522 276.000,63.833 276.000 C 64.145 276.000,64.400 276.180,64.400 276.400 C 64.400 276.620,64.670 276.800,65.000 276.800 C 65.330 276.800,65.600 276.980,65.600 277.200 C 65.600 277.420,65.788 277.600,66.017 277.600 C 66.246 277.600,66.820 277.960,67.292 278.400 C 67.764 278.840,68.387 279.200,68.675 279.200 C 68.964 279.200,69.200 279.380,69.200 279.600 C 69.200 279.820,69.390 280.000,69.622 280.000 C 69.854 280.000,71.104 280.720,72.400 281.600 C 73.696 282.480,74.838 283.200,74.937 283.200 C 75.037 283.200,76.284 283.908,77.708 284.773 C 80.181 286.276,90.402 291.507,96.821 294.556 C 100.459 296.284,100.938 297.109,101.670 302.908 C 103.289 315.725,98.406 334.231,91.524 341.363 C 87.952 345.065,87.797 344.928,95.300 344.672 C 104.369 344.363,111.433 343.409,123.800 340.823 C 126.675 340.222,131.294 339.108,133.600 338.460 C 145.600 335.086,159.691 329.694,169.200 324.838 C 172.670 323.065,174.983 321.817,175.200 321.599 C 175.310 321.489,175.940 321.131,176.600 320.803 C 179.009 319.606,182.691 317.408,186.600 314.834 L 190.600 312.200 203.200 311.941 C 217.572 311.647,226.238 311.057,237.400 309.613 C 242.022 309.016,244.891 308.563,252.500 307.233 C 253.655 307.031,255.410 306.747,256.400 306.602 C 257.390 306.457,258.560 306.184,259.000 305.994 C 259.440 305.805,260.520 305.542,261.400 305.409 C 262.280 305.277,263.676 305.067,264.503 304.942 C 265.329 304.818,266.105 304.555,266.226 304.358 C 266.348 304.161,267.056 304.000,267.800 304.000 C 268.544 304.000,269.252 303.840,269.373 303.644 C 269.494 303.449,270.179 303.192,270.896 303.073 C 273.527 302.639,278.145 301.401,284.800 299.348 C 291.305 297.341,292.149 297.064,292.600 296.789 C 292.820 296.654,293.810 296.300,294.800 296.002 C 295.790 295.705,296.771 295.312,296.980 295.130 C 297.189 294.949,297.596 294.800,297.884 294.800 C 298.173 294.800,299.262 294.422,300.304 293.960 C 301.347 293.498,302.605 292.958,303.100 292.760 C 305.449 291.820,306.253 291.480,306.895 291.153 C 307.277 290.959,307.862 290.800,308.195 290.800 C 308.528 290.800,308.800 290.620,308.800 290.400 C 308.800 290.180,309.036 290.000,309.325 290.000 C 309.614 290.000,310.559 289.665,311.425 289.256 C 312.291 288.847,313.810 288.172,314.800 287.756 C 317.412 286.659,327.107 281.693,327.600 281.200 C 327.800 281.000,330.610 279.469,332.297 278.640 C 332.790 278.398,333.195 278.065,333.197 277.900 C 333.199 277.735,333.393 277.600,333.628 277.600 C 333.863 277.600,334.841 277.060,335.800 276.400 C 336.759 275.740,337.737 275.200,337.972 275.200 C 338.207 275.200,338.400 275.042,338.400 274.849 C 338.400 274.655,338.940 274.273,339.600 274.000 C 340.260 273.727,340.800 273.357,340.800 273.178 C 340.800 273.000,341.159 272.740,341.598 272.601 C 342.036 272.462,342.621 272.130,342.898 271.864 C 343.174 271.597,344.930 270.318,346.800 269.020 C 350.103 266.728,353.548 264.095,355.611 262.287 C 356.168 261.799,357.608 260.590,358.811 259.600 C 361.682 257.239,372.348 246.605,373.700 244.756 C 374.281 243.961,375.441 242.586,376.278 241.700 C 378.098 239.773,378.698 239.046,379.995 237.200 C 380.536 236.430,381.298 235.451,381.689 235.025 C 382.080 234.598,382.400 234.096,382.400 233.908 C 382.400 233.720,382.760 233.180,383.200 232.708 C 383.640 232.236,384.000 231.617,384.000 231.332 C 384.000 230.640,385.691 230.253,387.354 230.565 C 388.487 230.777,388.736 230.689,388.914 230.008 C 389.030 229.563,388.962 229.300,388.763 229.423 C 388.563 229.546,388.400 229.446,388.400 229.200 C 388.400 228.954,388.201 228.876,387.957 229.026 C 387.641 229.222,387.653 229.386,388.000 229.600 C 388.307 229.790,388.338 229.991,388.085 230.148 C 387.864 230.284,387.587 230.143,387.469 229.835 C 387.211 229.164,388.393 228.000,389.331 228.000 C 390.204 228.000,390.187 227.358,389.300 226.796 C 388.707 226.419,388.768 226.377,389.700 226.520 C 390.477 226.640,390.800 226.517,390.800 226.102 C 390.800 225.744,390.565 225.604,390.200 225.745 C 389.841 225.882,389.600 225.748,389.600 225.410 C 389.600 225.063,389.905 224.905,390.392 224.998 C 390.827 225.082,391.305 224.954,391.453 224.714 C 391.615 224.451,391.539 224.391,391.262 224.562 C 390.981 224.735,390.800 224.577,390.800 224.157 C 390.800 223.777,390.918 223.585,391.063 223.730 C 391.208 223.875,391.568 223.793,391.863 223.548 C 392.480 223.035,392.603 221.827,392.000 222.200 C 391.780 222.336,391.600 222.156,391.600 221.800 C 391.600 221.444,391.772 221.259,391.982 221.389 C 392.434 221.668,393.714 219.840,393.894 218.659 C 393.964 218.206,394.151 217.737,394.310 217.617 C 394.851 217.212,394.909 215.485,394.371 215.818 C 394.060 216.010,393.978 215.959,394.151 215.679 C 394.302 215.435,394.721 215.348,395.082 215.487 C 395.562 215.671,395.674 215.571,395.500 215.115 C 395.368 214.772,395.527 214.111,395.853 213.646 C 396.404 212.859,396.381 212.797,395.523 212.760 C 394.617 212.721,394.619 212.715,395.596 212.443 C 396.274 212.254,396.434 212.068,396.096 211.859 C 395.823 211.691,395.600 211.373,395.600 211.153 C 395.600 210.933,395.744 210.842,395.919 210.950 C 396.095 211.058,396.500 210.982,396.819 210.780 C 397.273 210.493,397.203 210.411,396.500 210.406 C 396.005 210.403,395.600 210.209,395.600 209.976 C 395.600 209.743,395.799 209.676,396.043 209.826 C 396.345 210.013,396.395 209.813,396.200 209.200 C 396.004 208.584,396.055 208.387,396.360 208.575 C 397.079 209.020,397.811 207.924,397.946 206.200 C 398.015 205.320,398.235 204.540,398.436 204.467 C 398.636 204.393,398.800 203.639,398.800 202.790 C 398.800 201.942,398.989 201.131,399.219 200.988 C 399.506 200.811,399.491 200.550,399.170 200.164 C 398.810 199.730,398.826 199.451,399.242 198.949 C 399.640 198.470,399.811 196.484,399.889 191.449 C 399.957 187.032,399.864 184.884,399.626 185.400 C 399.422 185.840,399.244 187.065,399.228 188.123 C 399.213 189.180,399.035 190.800,398.833 191.723 C 398.631 192.645,398.244 194.480,397.973 195.800 C 393.324 218.455,376.801 244.493,357.234 260.001 C 356.263 260.770,354.823 261.946,354.034 262.613 C 350.708 265.425,340.054 273.069,337.143 274.733 C 336.404 275.155,334.540 276.276,333.000 277.224 C 328.229 280.162,316.854 286.045,310.600 288.809 C 307.369 290.238,303.391 291.932,302.200 292.387 C 301.760 292.555,300.950 292.879,300.400 293.107 C 299.850 293.335,298.320 293.914,297.000 294.393 C 295.680 294.872,294.287 295.430,293.905 295.632 C 293.523 295.834,292.884 296.000,292.485 296.000 C 292.086 296.000,291.589 296.148,291.380 296.328 C 291.171 296.508,289.650 297.070,288.000 297.576 C 286.350 298.083,284.550 298.648,284.000 298.834 C 283.103 299.137,281.386 299.620,273.349 301.831 C 270.878 302.511,268.918 302.995,266.100 303.622 C 263.188 304.270,260.873 304.784,258.900 305.221 C 257.855 305.453,256.100 305.806,255.000 306.006 C 253.900 306.205,252.010 306.556,250.800 306.786 C 244.481 307.985,235.064 309.254,226.600 310.048 C 224.180 310.275,215.180 310.585,206.600 310.737 C 191.904 310.997,189.600 311.174,189.600 312.043 C 189.600 312.239,189.392 312.400,189.138 312.400 C 188.884 312.400,188.119 312.822,187.438 313.339 C 186.217 314.264,179.657 318.400,179.409 318.400 C 179.339 318.400,178.138 319.089,176.741 319.932 C 175.343 320.775,173.615 321.719,172.900 322.030 C 172.185 322.341,171.600 322.731,171.600 322.898 C 171.600 323.064,171.240 323.200,170.800 323.200 C 170.360 323.200,170.000 323.380,170.000 323.600 C 170.000 323.820,169.640 324.000,169.200 324.000 C 168.760 324.000,168.400 324.180,168.400 324.400 C 168.400 324.620,168.040 324.800,167.600 324.800 C 167.160 324.800,166.800 324.980,166.800 325.200 C 166.800 325.420,166.547 325.600,166.238 325.600 C 165.929 325.600,164.984 325.942,164.138 326.360 C 161.233 327.795,157.164 329.600,156.832 329.600 C 156.649 329.600,155.532 330.025,154.350 330.544 C 153.167 331.064,151.030 331.882,149.600 332.363 C 148.170 332.844,146.687 333.409,146.305 333.619 C 145.923 333.829,145.259 334.000,144.829 334.000 C 144.399 334.000,143.936 334.180,143.800 334.400 C 143.664 334.620,143.124 334.800,142.600 334.800 C 142.076 334.800,141.536 334.980,141.400 335.200 C 141.264 335.420,140.724 335.600,140.200 335.600 C 139.676 335.600,139.136 335.780,139.000 336.000 C 138.864 336.220,138.234 336.400,137.600 336.400 C 136.966 336.400,136.336 336.580,136.200 336.800 C 136.064 337.020,135.434 337.200,134.800 337.200 C 134.166 337.200,133.536 337.380,133.400 337.600 C 133.264 337.820,132.634 338.000,132.000 338.000 C 131.366 338.000,130.736 338.180,130.600 338.400 C 130.464 338.620,129.744 338.800,129.000 338.800 C 128.256 338.800,127.536 338.980,127.400 339.200 C 127.264 339.420,126.454 339.600,125.600 339.600 C 124.746 339.600,123.936 339.780,123.800 340.000 C 123.664 340.220,122.879 340.400,122.056 340.400 C 121.233 340.400,120.389 340.563,120.180 340.761 C 119.971 340.960,118.990 341.223,118.000 341.346 C 117.010 341.470,115.030 341.767,113.600 342.007 C 112.170 342.248,109.920 342.532,108.600 342.639 C 107.280 342.746,105.840 343.001,105.400 343.205 C 104.960 343.410,102.935 343.673,100.900 343.789 C 98.865 343.905,95.543 344.104,93.517 344.231 L 89.833 344.461 91.617 342.508 C 94.213 339.665,95.584 337.869,95.593 337.300 C 95.597 337.025,95.736 336.800,95.902 336.800 C 96.069 336.800,96.444 336.215,96.737 335.500 C 97.029 334.785,97.604 333.480,98.013 332.600 C 103.622 320.546,104.038 294.400,98.621 294.400 C 98.341 294.400,97.052 293.881,95.756 293.247 C 94.460 292.613,91.780 291.309,89.800 290.351 C 83.534 287.317,69.205 279.070,68.867 278.303 C 68.793 278.136,68.512 278.000,68.242 278.000 C 67.972 278.000,67.394 277.685,66.958 277.300 C 66.523 276.915,65.697 276.330,65.123 276.000 C 64.550 275.670,63.567 275.011,62.940 274.535 C 62.313 274.060,59.910 272.273,57.600 270.565 C 51.707 266.207,46.362 261.790,41.426 257.200 C 18.175 235.578,3.653 210.502,0.817 187.077 C 0.217 182.115,-0.086 183.705,0.062 191.043 M12.013 231.254 C 11.983 231.851,13.186 233.715,13.944 234.246 C 14.396 234.563,14.674 235.064,14.560 235.359 C 14.447 235.655,14.660 236.014,15.034 236.158 C 15.573 236.365,15.620 236.306,15.260 235.872 C 15.011 235.572,14.910 235.223,15.037 235.097 C 15.163 234.970,14.885 234.485,14.419 234.019 C 13.952 233.552,13.678 232.997,13.809 232.785 C 13.940 232.573,13.831 232.400,13.568 232.400 C 13.304 232.400,12.849 232.085,12.557 231.700 C 12.265 231.315,12.020 231.114,12.013 231.254 M387.367 231.743 C 387.228 232.104,386.853 232.400,386.534 232.400 C 386.214 232.400,386.071 232.592,386.216 232.827 C 386.361 233.061,386.182 233.471,385.818 233.738 C 385.453 234.004,385.115 234.487,385.066 234.811 C 385.018 235.135,384.838 235.623,384.668 235.895 C 384.455 236.236,384.555 236.316,384.986 236.150 C 385.332 236.017,385.590 235.704,385.560 235.454 C 385.444 234.488,385.618 234.004,386.046 234.100 C 386.533 234.209,388.168 231.635,387.828 231.295 C 387.713 231.180,387.505 231.381,387.367 231.743 M16.670 238.286 C 16.526 238.519,16.677 238.932,17.004 239.204 C 17.332 239.476,17.600 239.946,17.600 240.249 C 17.600 240.552,17.780 240.800,18.000 240.800 C 18.531 240.800,18.512 240.116,17.972 239.783 C 17.737 239.637,17.406 239.146,17.238 238.691 C 17.059 238.208,16.823 238.039,16.670 238.286 M37.200 262.625 C 37.200 262.859,37.740 263.568,38.400 264.200 C 39.422 265.179,39.600 265.239,39.600 264.608 C 39.600 264.200,39.483 263.983,39.340 264.126 C 39.198 264.269,38.658 263.894,38.141 263.293 C 37.624 262.692,37.201 262.391,37.200 262.625 M361.784 263.370 C 361.378 263.910,360.901 264.262,360.723 264.152 C 360.545 264.043,360.400 264.275,360.400 264.669 C 360.400 265.239,360.660 265.125,361.679 264.105 C 362.383 263.401,362.860 262.727,362.740 262.607 C 362.620 262.486,362.189 262.830,361.784 263.370 M335.700 282.888 C 335.205 283.127,334.800 283.479,334.800 283.670 C 334.800 283.862,335.250 283.724,335.800 283.363 C 337.267 282.402,337.216 282.157,335.700 282.888 " stroke="none" fill="#a6a6a6" fill-rule="evenodd"/></g></svg>