<?xml version="1.0" encoding="iso-8859-1"?>
<!-- Generator: Adobe Illustrator 19.0.0, SVG Export Plug-In . SVG Version: 6.00 Build 0)  -->
<svg version="1.1" id="Layer_1" xmlns="http://www.w3.org/2000/svg" xmlns:xlink="http://www.w3.org/1999/xlink" x="0px" y="0px"
	 viewBox="0 0 457.577 457.577" style="enable-background:new 0 0 457.577 457.577;" xml:space="preserve">
<g>
	<g>
		<g>
			<path d="M276.092,377.771c1.877-4.286,4.153-8.313,6.76-12.06l-17.296-62.042c-1.841-6.603-6.326-12.152-12.395-15.337
				l-39.331-20.637l26.807-61.214l15.106,27.403c5.247,9.519,16.719,13.726,26.864,9.825c26.436-10.168,54.548-21.529,73.671-29.584
				c8.03-3.382,14.93-9.552,15.643-18.73c0.901-11.588-7.762-21.711-19.35-22.613l-64.17,24.543l-25.631-41.387l1.594-3.639
				c5.632-12.86-0.228-27.85-13.088-33.482l-52.89-23.162c-12.86-5.632-27.85,0.228-33.482,13.088l-2.092,4.776l26.685-1.696
				l-84.588,25.619c-6.621,2.006-11.984,7.206-14.051,14.075l-24.236,80.51c-3.346,11.107,2.931,22.86,14.084,26.218
				c11.116,3.346,22.876-2.991,26.215-14.078c0.001-0.002,0.002-0.004,0.002-0.006l20.985-69.705l76.602-23.201l-59.479,36.407
				l-18.763,62.323c-2.669,8.864-8.016,16.133-14.971,21.27l43.439,62.979l-58.642,69.059c-8.887,10.465-7.607,26.152,2.857,35.039
				c10.468,8.887,26.153,7.606,35.039-2.858l70.974-83.581c6.85-8.066,7.796-19.513,2.558-28.547
				c-3.908-5.509,3.441,4.449-47.208-63.712c5.775,4.761,52.217,43.055,59.289,48.886l0.819,0.681
				c12.929,10.742,15.896,29.3,7.184,43.487l24.171,86.7c3.064,10.992,13.053,18.189,23.932,18.189
				c4.375,0,8.865-1.167,12.891-3.603c-5.763-6.334-10.389-13.723-13.599-21.937C268.107,414.394,268.494,395.123,276.092,377.771z"
				/>
			<circle cx="269.904" cy="50.753" r="50.753"/>
			<path d="M341.078,355.453c-19.545,0-38.174,11.356-46.517,30.406c-14.711,33.591,10.051,71.125,46.464,71.125
				c19.545,0,38.174-11.356,46.517-30.406C402.253,392.987,377.491,355.453,341.078,355.453z"/>
		</g>
	</g>
</g>
<g>
</g>
<g>
</g>
<g>
</g>
<g>
</g>
<g>
</g>
<g>
</g>
<g>
</g>
<g>
</g>
<g>
</g>
<g>
</g>
<g>
</g>
<g>
</g>
<g>
</g>
<g>
</g>
<g>
</g>
</svg>
