<svg version="1.0" xmlns="http://www.w3.org/2000/svg" preserveAspectRatio="xMidYMid meet" viewBox="127.48 70.57 357.02 470.45">

<g transform="translate(0.000000,612.000000) scale(0.100000,-0.100000)" fill="#000000" stroke="none">
<path d="M2997 5409 c-131 -21 -249 -121 -296 -251 l-11 -28 -238 0 -238 0 -26 -27 c-17 -19 -33 -58 -48 -120 l-24 -93 -310 0 c-183 0 -326 -4 -348 -10 -57 -16 -120 -70 -153 -130 l-30 -55 0 -1895 c0 -2117 -7 -1923 72 -2010 78 -87 -84 -80 1707 -80 l1586 0 50 21 c55 24 113 81 138 138 16 33 17 190 17 1927 l0 1890 -30 59 c-34 66 -93 118 -153 135 -22 6 -165 10 -348 10 l-312 0 -22 93 c-17 72 -28 98 -51 120 l-29 27 -235 0 -235 0 -15 37 c-74 176 -238 271 -418 242z m164 -224 c42 -27 79 -89 79 -130 0 -37 25 -92 48 -104 13 -7 108 -11 261 -11 l240 0 10 -37 c22 -85 61 -242 61 -247 0 -3 -360 -6 -800 -6 -440 0 -800 3 -800 6 0 5 39 162 61 247 l10 37 245 0 c245 0 245 0 269 24 13 13 26 41 30 62 3 22 8 48 10 60 8 39 50 89 95 112 57 29 125 24 181 -13z m-1115 -563 c-22 -82 -20 -97 13 -134 l29 -33 959 -2 c748 -2 963 0 982 10 13 6 33 24 45 40 18 25 19 32 8 85 -7 31 -15 67 -18 80 l-6 22 280 0 c279 0 281 0 296 -22 14 -20 16 -214 16 -1871 l0 -1848 -25 -24 -24 -25 -1536 0 c-1552 0 -1565 0 -1587 34 -4 6 -8 844 -8 1862 0 1749 1 1853 18 1873 16 20 26 21 292 24 151 1 276 -1 278 -5 2 -3 -4 -33 -12 -66z"/>
<path d="M1968 3884 c-35 -18 -54 -77 -39 -116 6 -16 25 -37 43 -48 33 -20 47 -20 1095 -18 1061 3 1062 3 1090 24 56 42 52 128 -8 159 -42 22 -2141 22 -2181 -1z"/>
<path d="M1957 3296 c-58 -54 -38 -139 37 -164 30 -10 261 -12 1086 -10 1041 3 1049 3 1076 24 52 38 56 103 9 150 l-24 24 -1079 0 -1079 0 -26 -24z"/>
<path d="M1958 2717 c-48 -44 -45 -119 5 -151 20 -14 147 -16 1097 -16 1027 -1 1076 0 1099 18 49 36 52 102 6 148 l-24 24 -1079 0 -1079 0 -25 -23z"/>
<path d="M1955 2136 c-32 -32 -40 -69 -25 -107 26 -63 -49 -59 1128 -59 717 0 1080 3 1093 10 53 29 61 121 12 160 -26 20 -33 20 -1105 20 l-1079 0 -24 -24z"/>
<path d="M1955 1556 c-32 -32 -40 -69 -25 -107 26 -63 -49 -59 1132 -59 l1077 0 28 24 c23 20 28 32 28 71 0 39 -5 51 -28 71 l-28 24 -1080 0 -1080 0 -24 -24z"/>
</g>
</svg>