<svg xmlns="http://www.w3.org/2000/svg" width="57" height="68" viewBox="0 0 57 68" version="1.1"><path d="M 38.788 27.386 C 48.003 37.383, 48.409 44.019, 40.009 47.380 C 37.782 48.271, 35.538 49, 35.022 49 C 34.506 49, 32.880 46.945, 31.408 44.434 C 29.937 41.922, 28.370 40.235, 27.928 40.684 C 25.747 42.895, 16.019 61.410, 16.708 62.038 C 17.144 62.436, 22.900 63.743, 29.500 64.945 C 36.100 66.146, 42.288 67.355, 43.250 67.632 C 45.576 68.301, 45.463 66.459, 42.961 62.945 L 40.921 60.081 45.211 57.928 C 57.466 51.775, 59.981 43.436, 52.193 34.771 C 48.626 30.801, 37.706 23, 35.718 23 C 35.183 23, 36.564 24.974, 38.788 27.386" stroke="none" fill="#e43c3c" fill-rule="evenodd"/><path d="M 13.033 3.553 C 14.240 5.507, 15.064 7.226, 14.864 7.375 C 14.664 7.523, 12.410 8.840, 9.855 10.302 C 3.473 13.955, 0 18.304, 0 22.642 C 0 26.983, 1.243 29.455, 5.868 34.317 C 9.160 37.776, 19.717 45, 21.481 45 C 21.877 45, 19.941 42.528, 17.180 39.507 C 8.867 30.411, 8.343 25.200, 15.314 20.950 C 20.123 18.018, 22.192 18.456, 25 23 C 26.360 25.200, 27.794 27, 28.188 27 C 28.582 27, 31.608 22.163, 34.914 16.250 L 40.924 5.500 27.712 2.797 C 9.909 -0.845, 10.302 -0.865, 13.033 3.553" stroke="none" fill="#53b40c" fill-rule="evenodd"/></svg>