<!-- Generator: Adobe Illustrator 18.1.1, SVG Export Plug-In  -->
<svg version="1.1" xmlns="http://www.w3.org/2000/svg" xmlns:xlink="http://www.w3.org/1999/xlink" xmlns:a="http://ns.adobe.com/AdobeSVGViewerExtensions/3.0/" x="0px" y="0px" width="313.568px" height="89.548px" viewBox="0 0 313.568 89.548" enable-background="new 0 0 313.568 89.548" xml:space="preserve">
<defs>
</defs>
<path fill="#FFFFFF" d="M44.557,0c-11.902,0-23.092,4.634-31.51,13.05C4.633,21.468,0,32.657,0,44.557  c0,11.901,4.633,23.092,13.047,31.506c8.418,8.418,19.607,13.054,31.51,13.054c24.568,0,44.555-19.989,44.555-44.56  C89.111,19.989,69.125,0,44.557,0z M44.557,87.281c-11.41-0.002-22.141-4.444-30.209-12.514c-8.07-8.07-12.514-18.799-12.512-30.211  C1.834,33.147,6.277,22.419,14.348,14.349c8.068-8.07,18.799-12.513,30.209-12.513c23.555,0,42.719,19.164,42.719,42.721  C87.275,68.115,68.111,87.281,44.557,87.281z"/>
<g>
	<path fill="#30C0DA" d="M0.916,45.475C0.41,45.475,0,45.062,0,44.557C0,19.989,19.988,0.001,44.557,0.001   c0.508,0,0.918,0.412,0.918,0.918c0,0.506-0.41,0.916-0.918,0.916C21,1.836,1.834,21,1.834,44.557   C1.834,45.062,1.422,45.475,0.916,45.475z"/>
</g>
<g>
	<path fill="#A432C1" d="M88.193,45.475c-0.508,0-0.918-0.412-0.918-0.918C87.275,21,68.111,1.836,44.557,1.836   c-0.506,0-0.916-0.41-0.916-0.916c0-0.506,0.41-0.918,0.916-0.918c24.568,0,44.555,19.987,44.555,44.555   C89.111,45.062,88.701,45.475,88.193,45.475z"/>
</g>
<g>
	<path fill="#30C0DA" d="M44.557,89.116c-0.506,0-0.916-0.41-0.916-0.917c0-0.508,0.41-0.918,0.916-0.918   c23.555,0,42.719-19.166,42.719-42.725c0-0.507,0.41-0.918,0.918-0.918s0.918,0.411,0.918,0.918   C89.111,69.127,69.125,89.116,44.557,89.116z"/>
</g>
<g>
	<path fill="#DBDBDB" d="M44.557,89.116C19.988,89.116,0,69.127,0,44.557c0-0.507,0.41-0.918,0.916-0.918   c0.506,0,0.918,0.411,0.918,0.918c0,23.559,19.166,42.725,42.723,42.725c0.508,0,0.918,0.41,0.918,0.918   C45.475,88.706,45.064,89.116,44.557,89.116z"/>
</g>
<g>
	<path fill="#30C0DA" d="M66.143,72.422c-1.611,0-2.914-1.305-2.914-2.914V19.552c0-1.608,1.303-2.913,2.914-2.913   c1.609,0,2.914,1.305,2.914,2.913v49.956C69.057,71.117,67.752,72.422,66.143,72.422z"/>
</g>
<g>
	<path fill="#30C0DA" d="M24.549,72.449c-1.607,0-2.912-1.305-2.912-2.914V19.58c0-1.609,1.305-2.913,2.912-2.913   c1.611,0,2.916,1.304,2.916,2.913v49.955C27.465,71.145,26.16,72.449,24.549,72.449z"/>
</g>
<g>
	<path fill="#30C0DA" d="M44.715,45.332c0.983,0.215,2.049-0.087,2.777-0.881c1.084-1.188,1.002-3.03-0.188-4.117l-20.834-22.91   c-1.189-1.085-3.029-1-4.115,0.185c-1.086,1.187-1,3.032,0.186,4.116l20.834,22.911C43.768,44.995,44.232,45.225,44.715,45.332z"/>
</g>
<g>
	<path fill="#30C0DA" d="M45.943,45.306c-0.982,0.215-2.049-0.087-2.777-0.882c-1.084-1.186-1-3.029,0.188-4.115l20.834-22.91   c1.189-1.085,3.029-1,4.115,0.185c1.088,1.186,1,3.031-0.186,4.116l-20.834,22.91C46.891,44.969,46.426,45.199,45.943,45.306z"/>
</g>
<path fill="#4F4F4F" d="M108.228,58.486V19h5.704l12.942,34.824h0.109L139.707,19h5.648v39.486h-3.73V23.278h-0.109l-12.942,35.209  h-3.51l-12.998-35.209h-0.109v35.209H108.228z"/>
<path fill="#4F4F4F" d="M155.392,58.486V19h3.729v39.486H155.392z"/>
<path fill="#4F4F4F" d="M208.916,58.486V19h3.729v36.305h21.169v3.182H208.916z"/>
<path fill="#4F4F4F" d="M235.788,58.486L251.309,19h4.223l15.137,39.486h-3.839l-4.553-12.395h-17.987l-4.662,12.395H235.788z   M245.55,42.91h15.466l-7.732-20.729L245.55,42.91z"/>
<path fill="#4F4F4F" d="M279.661,40.553v17.934h-3.729V19h15.465c4.351,0,7.678,0.814,9.981,2.44  c2.303,1.627,3.455,4.269,3.455,7.925c0,2.486-0.503,4.461-1.509,5.923c-1.006,1.462-2.642,2.706-4.908,3.729  c1.17,0.402,2.084,0.986,2.742,1.754c0.658,0.769,1.151,1.646,1.48,2.633c0.329,0.987,0.539,2.029,0.631,3.126  c0.091,1.097,0.155,2.157,0.192,3.181c0.036,1.5,0.1,2.742,0.191,3.729c0.091,0.987,0.201,1.792,0.329,2.413  c0.128,0.622,0.283,1.105,0.467,1.453c0.182,0.348,0.401,0.613,0.657,0.795v0.385h-4.112c-0.403-0.658-0.685-1.572-0.851-2.742  c-0.164-1.17-0.293-2.395-0.384-3.675c-0.092-1.279-0.164-2.523-0.22-3.73c-0.055-1.206-0.155-2.193-0.301-2.961  c-0.22-1.061-0.576-1.91-1.069-2.551c-0.494-0.639-1.089-1.123-1.783-1.453c-0.694-0.328-1.472-0.549-2.33-0.658  c-0.859-0.109-1.747-0.164-2.66-0.164H279.661z M291.288,37.372c1.389,0,2.678-0.146,3.866-0.439  c1.188-0.292,2.221-0.758,3.099-1.398c0.877-0.639,1.571-1.453,2.084-2.44c0.512-0.987,0.768-2.175,0.768-3.565  c0-1.462-0.266-2.668-0.795-3.62c-0.53-0.95-1.244-1.7-2.139-2.248c-0.897-0.548-1.92-0.933-3.071-1.152  c-1.152-0.219-2.35-0.329-3.593-0.329h-11.846v15.191H291.288z"/>
<g>
	<rect x="100.521" y="70.043" fill="none" width="213.047" height="19.505"/>
	<path fill="#9C9C9C" d="M125.899,70.043h0.804v5.071c0,1.057,0.197,1.817,0.591,2.282c0.395,0.465,1.028,0.698,1.903,0.698   c0.457,0,0.846-0.061,1.165-0.184c0.318-0.122,0.577-0.307,0.774-0.555c0.196-0.249,0.338-0.558,0.425-0.928   s0.131-0.808,0.131-1.312v-5.071h0.804v5.308c0,1.111-0.274,1.96-0.822,2.547c-0.548,0.587-1.373,0.881-2.477,0.881   c-1.111,0-1.938-0.299-2.482-0.898s-0.815-1.442-0.815-2.53V70.043z M128.523,69.381l1.312-1.644h0.91l-1.619,1.644H128.523z"/>
	<path fill="#9C9C9C" d="M133.654,70.043h6.194v0.686h-2.695v7.826h-0.804v-7.826h-2.695V70.043z"/>
	<path fill="#9C9C9C" d="M140.251,70.043h0.839l2.565,7.566l2.554-7.566h0.84l-2.956,8.512h-0.887L140.251,70.043z"/>
	<path fill="#9C9C9C" d="M147.439,78.555l3.346-8.512h0.91l3.263,8.512h-0.828l-0.98-2.672h-3.878l-1.005,2.672H147.439z    M149.543,75.197h3.334l-1.667-4.469L149.543,75.197z"/>
	<path fill="#9C9C9C" d="M156.896,74.689v3.866l-0.805-0.012v-8.5h3.334c0.938,0,1.655,0.175,2.152,0.526   c0.496,0.351,0.744,0.92,0.744,1.708c0,0.536-0.108,0.961-0.325,1.276c-0.217,0.315-0.569,0.583-1.058,0.804   c0.252,0.087,0.449,0.213,0.591,0.378s0.248,0.354,0.319,0.567s0.116,0.438,0.136,0.674s0.033,0.465,0.042,0.686   c0.008,0.323,0.021,0.591,0.041,0.804c0.02,0.212,0.043,0.386,0.071,0.52c0.027,0.134,0.061,0.238,0.1,0.313   c0.04,0.075,0.087,0.132,0.143,0.172v0.071l-0.887,0.012c-0.087-0.142-0.148-0.339-0.184-0.591   c-0.035-0.252-0.063-0.516-0.083-0.792s-0.035-0.543-0.047-0.804s-0.033-0.473-0.065-0.639c-0.047-0.229-0.124-0.412-0.23-0.549   c-0.106-0.138-0.234-0.243-0.384-0.313s-0.317-0.118-0.503-0.142c-0.185-0.023-0.376-0.035-0.573-0.035H156.896z M159.402,74.003   c0.3,0,0.577-0.032,0.834-0.095c0.256-0.063,0.479-0.164,0.668-0.302c0.188-0.138,0.338-0.313,0.449-0.526   c0.109-0.213,0.165-0.469,0.165-0.769c0-0.315-0.058-0.575-0.172-0.78c-0.114-0.205-0.268-0.366-0.461-0.484   c-0.192-0.118-0.413-0.201-0.662-0.249c-0.248-0.047-0.506-0.071-0.773-0.071h-2.554v3.275H159.402z"/>
	<path fill="#9C9C9C" d="M163.953,78.555v-8.512h3.109c0.552,0,1.007,0.063,1.365,0.189s0.643,0.3,0.852,0.52   c0.209,0.221,0.354,0.475,0.438,0.763s0.124,0.589,0.124,0.904c0,0.473-0.097,0.863-0.29,1.17c-0.193,0.308-0.443,0.55-0.75,0.727   c-0.308,0.177-0.656,0.302-1.047,0.373c-0.39,0.071-0.782,0.106-1.176,0.106h-1.821v3.759H163.953z M166.602,74.109   c0.378,0,0.717-0.023,1.017-0.071s0.554-0.136,0.763-0.266c0.209-0.13,0.37-0.307,0.484-0.532s0.172-0.518,0.172-0.881   c0-0.536-0.176-0.941-0.526-1.218c-0.351-0.275-0.908-0.414-1.673-0.414h-2.081v3.381H166.602z"/>
	<path fill="#9C9C9C" d="M171.544,76.013c0.031,0.378,0.116,0.699,0.254,0.963s0.315,0.479,0.532,0.644   c0.216,0.166,0.467,0.286,0.75,0.361c0.284,0.075,0.587,0.112,0.91,0.112c0.379,0,0.706-0.047,0.981-0.142   c0.276-0.094,0.501-0.223,0.674-0.384c0.174-0.161,0.302-0.349,0.385-0.562c0.082-0.213,0.124-0.438,0.124-0.674   c0-0.331-0.075-0.599-0.225-0.804c-0.15-0.205-0.345-0.373-0.585-0.502c-0.241-0.13-0.517-0.234-0.828-0.313   c-0.312-0.079-0.631-0.155-0.957-0.23c-0.327-0.075-0.646-0.164-0.958-0.266c-0.312-0.102-0.587-0.24-0.827-0.414   c-0.241-0.173-0.436-0.396-0.586-0.668c-0.149-0.272-0.225-0.617-0.225-1.035c0-0.292,0.062-0.575,0.184-0.851   s0.304-0.52,0.544-0.733s0.542-0.382,0.904-0.508s0.78-0.189,1.253-0.189c0.48,0,0.9,0.067,1.259,0.201   c0.359,0.134,0.656,0.317,0.893,0.55c0.237,0.232,0.414,0.502,0.532,0.81c0.118,0.307,0.178,0.634,0.178,0.981h-0.769   c0-0.323-0.058-0.603-0.172-0.839s-0.27-0.429-0.467-0.579s-0.422-0.26-0.674-0.331s-0.513-0.106-0.78-0.106   c-0.41,0-0.755,0.057-1.034,0.171c-0.28,0.114-0.503,0.262-0.668,0.443c-0.166,0.181-0.28,0.382-0.343,0.603   c-0.063,0.221-0.075,0.441-0.035,0.662c0.047,0.276,0.157,0.496,0.331,0.662c0.173,0.166,0.386,0.302,0.638,0.408   s0.53,0.193,0.834,0.26c0.303,0.067,0.612,0.138,0.928,0.213c0.315,0.075,0.621,0.164,0.916,0.266   c0.296,0.103,0.558,0.24,0.786,0.414c0.229,0.174,0.412,0.396,0.55,0.668s0.207,0.613,0.207,1.023c0,0.788-0.271,1.399-0.815,1.832   c-0.544,0.434-1.309,0.65-2.294,0.65c-0.441,0-0.851-0.057-1.229-0.171c-0.378-0.114-0.705-0.288-0.981-0.52   c-0.275-0.232-0.49-0.521-0.644-0.863c-0.154-0.343-0.23-0.747-0.23-1.211H171.544z"/>
	<path fill="#9C9C9C" d="M179.229,74.689v3.866l-0.805-0.012v-8.5h3.334c0.938,0,1.655,0.175,2.152,0.526   c0.496,0.351,0.744,0.92,0.744,1.708c0,0.536-0.108,0.961-0.325,1.276c-0.217,0.315-0.569,0.583-1.058,0.804   c0.252,0.087,0.449,0.213,0.591,0.378s0.248,0.354,0.319,0.567s0.116,0.438,0.136,0.674s0.033,0.465,0.042,0.686   c0.008,0.323,0.021,0.591,0.041,0.804c0.02,0.212,0.043,0.386,0.071,0.52c0.027,0.134,0.061,0.238,0.1,0.313   c0.04,0.075,0.087,0.132,0.143,0.172v0.071l-0.887,0.012c-0.087-0.142-0.148-0.339-0.184-0.591   c-0.035-0.252-0.063-0.516-0.083-0.792s-0.035-0.543-0.047-0.804s-0.033-0.473-0.065-0.639c-0.047-0.229-0.124-0.412-0.23-0.549   c-0.106-0.138-0.234-0.243-0.384-0.313s-0.317-0.118-0.503-0.142c-0.185-0.023-0.376-0.035-0.573-0.035H179.229z M181.734,74.003   c0.3,0,0.577-0.032,0.834-0.095c0.256-0.063,0.479-0.164,0.668-0.302c0.188-0.138,0.338-0.313,0.449-0.526   c0.109-0.213,0.165-0.469,0.165-0.769c0-0.315-0.058-0.575-0.172-0.78c-0.114-0.205-0.268-0.366-0.461-0.484   c-0.192-0.118-0.413-0.201-0.662-0.249c-0.248-0.047-0.506-0.071-0.773-0.071h-2.554v3.275H181.734z"/>
	<path fill="#9C9C9C" d="M185.541,78.555l3.346-8.512h0.91l3.263,8.512h-0.828l-0.98-2.672h-3.878l-1.005,2.672H185.541z    M187.645,75.197h3.334l-1.667-4.469L187.645,75.197z M188.626,69.381l1.312-1.644h0.91l-1.619,1.644H188.626z"/>
	<path fill="#9C9C9C" d="M194.537,76.013c0.031,0.378,0.116,0.699,0.254,0.963s0.315,0.479,0.532,0.644   c0.216,0.166,0.467,0.286,0.75,0.361c0.284,0.075,0.587,0.112,0.91,0.112c0.379,0,0.706-0.047,0.981-0.142   c0.276-0.094,0.501-0.223,0.674-0.384c0.174-0.161,0.302-0.349,0.385-0.562c0.082-0.213,0.124-0.438,0.124-0.674   c0-0.331-0.075-0.599-0.225-0.804c-0.15-0.205-0.345-0.373-0.585-0.502c-0.241-0.13-0.517-0.234-0.828-0.313   c-0.312-0.079-0.631-0.155-0.957-0.23c-0.327-0.075-0.646-0.164-0.958-0.266c-0.312-0.102-0.587-0.24-0.827-0.414   c-0.241-0.173-0.436-0.396-0.586-0.668c-0.149-0.272-0.225-0.617-0.225-1.035c0-0.292,0.062-0.575,0.184-0.851   s0.304-0.52,0.544-0.733s0.542-0.382,0.904-0.508s0.78-0.189,1.253-0.189c0.48,0,0.9,0.067,1.259,0.201   c0.359,0.134,0.656,0.317,0.893,0.55c0.237,0.232,0.414,0.502,0.532,0.81c0.118,0.307,0.178,0.634,0.178,0.981h-0.769   c0-0.323-0.058-0.603-0.172-0.839s-0.27-0.429-0.467-0.579s-0.422-0.26-0.674-0.331s-0.513-0.106-0.78-0.106   c-0.41,0-0.755,0.057-1.034,0.171c-0.28,0.114-0.503,0.262-0.668,0.443c-0.166,0.181-0.28,0.382-0.343,0.603   c-0.063,0.221-0.075,0.441-0.035,0.662c0.047,0.276,0.157,0.496,0.331,0.662c0.173,0.166,0.386,0.302,0.638,0.408   s0.53,0.193,0.834,0.26c0.303,0.067,0.612,0.138,0.928,0.213c0.315,0.075,0.621,0.164,0.916,0.266   c0.296,0.103,0.558,0.24,0.786,0.414c0.229,0.174,0.412,0.396,0.55,0.668s0.207,0.613,0.207,1.023c0,0.788-0.271,1.399-0.815,1.832   c-0.544,0.434-1.309,0.65-2.294,0.65c-0.441,0-0.851-0.057-1.229-0.171c-0.378-0.114-0.705-0.288-0.981-0.52   c-0.275-0.232-0.49-0.521-0.644-0.863c-0.154-0.343-0.23-0.747-0.23-1.211H194.537z"/>
	<path fill="#9C9C9C" d="M201.713,78.555v-8.512h0.804v8.512H201.713z"/>
	<path fill="#9C9C9C" d="M205.508,74.689v3.866l-0.805-0.012v-8.5h3.334c0.938,0,1.655,0.175,2.152,0.526   c0.496,0.351,0.744,0.92,0.744,1.708c0,0.536-0.108,0.961-0.325,1.276c-0.217,0.315-0.569,0.583-1.058,0.804   c0.252,0.087,0.449,0.213,0.591,0.378s0.248,0.354,0.319,0.567s0.116,0.438,0.136,0.674s0.033,0.465,0.042,0.686   c0.008,0.323,0.021,0.591,0.041,0.804c0.02,0.212,0.043,0.386,0.071,0.52c0.027,0.134,0.061,0.238,0.1,0.313   c0.04,0.075,0.087,0.132,0.143,0.172v0.071l-0.887,0.012c-0.087-0.142-0.148-0.339-0.184-0.591   c-0.035-0.252-0.063-0.516-0.083-0.792s-0.035-0.543-0.047-0.804s-0.033-0.473-0.065-0.639c-0.047-0.229-0.124-0.412-0.23-0.549   c-0.106-0.138-0.234-0.243-0.384-0.313s-0.317-0.118-0.503-0.142c-0.185-0.023-0.376-0.035-0.573-0.035H205.508z M208.014,74.003   c0.3,0,0.577-0.032,0.834-0.095c0.256-0.063,0.479-0.164,0.668-0.302c0.188-0.138,0.338-0.313,0.449-0.526   c0.109-0.213,0.165-0.469,0.165-0.769c0-0.315-0.058-0.575-0.172-0.78c-0.114-0.205-0.268-0.366-0.461-0.484   c-0.192-0.118-0.413-0.201-0.662-0.249c-0.248-0.047-0.506-0.071-0.773-0.071h-2.554v3.275H208.014z"/>
	<path fill="#9C9C9C" d="M215.556,74.31c0-0.623,0.084-1.206,0.254-1.75c0.169-0.544,0.42-1.019,0.751-1.425   c0.331-0.406,0.74-0.727,1.229-0.963c0.488-0.236,1.052-0.354,1.69-0.354c0.662,0,1.243,0.116,1.743,0.349   c0.501,0.232,0.918,0.552,1.254,0.958c0.334,0.406,0.587,0.883,0.756,1.431c0.17,0.548,0.255,1.133,0.255,1.755   c0,0.615-0.085,1.192-0.255,1.732c-0.169,0.54-0.419,1.013-0.75,1.418c-0.331,0.406-0.745,0.727-1.241,0.964   c-0.497,0.236-1.072,0.354-1.727,0.354s-1.229-0.118-1.726-0.354c-0.497-0.237-0.911-0.558-1.242-0.964   c-0.33-0.406-0.579-0.878-0.744-1.418C215.638,75.503,215.556,74.925,215.556,74.31z M219.527,78.094   c0.552,0,1.026-0.104,1.425-0.313c0.397-0.208,0.725-0.486,0.981-0.833c0.256-0.347,0.445-0.749,0.567-1.206   s0.183-0.934,0.183-1.431c0-0.591-0.072-1.121-0.219-1.59c-0.146-0.469-0.356-0.869-0.632-1.2   c-0.276-0.331-0.611-0.583-1.005-0.756c-0.395-0.173-0.836-0.26-1.324-0.26c-0.544,0-1.015,0.106-1.413,0.319   c-0.397,0.212-0.725,0.495-0.98,0.845c-0.257,0.351-0.446,0.754-0.568,1.211c-0.122,0.458-0.183,0.934-0.183,1.431   c0,0.504,0.061,0.985,0.183,1.442s0.312,0.859,0.568,1.206c0.256,0.347,0.583,0.623,0.98,0.828   C218.489,77.991,218.968,78.094,219.527,78.094z"/>
	<path fill="#9C9C9C" d="M228.701,74.843v-0.686h3.642v4.398h-0.687v-1.454c-0.149,0.252-0.321,0.483-0.514,0.691   c-0.193,0.209-0.416,0.386-0.668,0.532c-0.253,0.146-0.544,0.258-0.875,0.337c-0.331,0.079-0.705,0.118-1.123,0.118   c-0.536,0-1.032-0.095-1.489-0.284c-0.458-0.189-0.852-0.471-1.183-0.845s-0.589-0.845-0.774-1.413   c-0.186-0.568-0.277-1.229-0.277-1.986c0-0.623,0.078-1.204,0.236-1.744c0.157-0.54,0.399-1.009,0.727-1.407   s0.737-0.711,1.229-0.94c0.493-0.229,1.074-0.343,1.744-0.343c0.449,0,0.869,0.055,1.259,0.166c0.391,0.11,0.741,0.278,1.053,0.502   c0.311,0.225,0.573,0.504,0.786,0.839c0.212,0.335,0.366,0.731,0.461,1.188h-0.828c-0.07-0.315-0.19-0.599-0.36-0.851   c-0.17-0.252-0.372-0.463-0.608-0.633c-0.237-0.169-0.501-0.299-0.792-0.39c-0.292-0.09-0.596-0.136-0.911-0.136   c-0.56,0-1.04,0.099-1.442,0.295c-0.401,0.197-0.732,0.475-0.992,0.833c-0.261,0.359-0.452,0.788-0.574,1.289   s-0.183,1.05-0.183,1.649c0,0.473,0.068,0.922,0.207,1.348c0.138,0.425,0.339,0.8,0.603,1.123s0.587,0.579,0.97,0.769   c0.382,0.189,0.817,0.284,1.306,0.284c0.229,0,0.466-0.025,0.71-0.077c0.244-0.051,0.48-0.136,0.709-0.254s0.441-0.272,0.639-0.461   c0.196-0.189,0.366-0.422,0.508-0.698c0.135-0.268,0.227-0.548,0.278-0.839c0.051-0.292,0.081-0.599,0.089-0.922H228.701z"/>
	<path fill="#9C9C9C" d="M238.371,71.13h-0.023v7.424h-0.805v-8.512h0.911l4.918,7.436h0.023v-7.436h0.804v8.512h-0.934   L238.371,71.13z"/>
	<path fill="#9C9C9C" d="M246.103,78.555v-8.512h5.662v0.686h-4.858v3.074h4.386v0.686h-4.386v3.381h4.977v0.686H246.103z"/>
	<path fill="#9C9C9C" d="M252.558,70.043h6.194v0.686h-2.695v7.826h-0.804v-7.826h-2.695V70.043z"/>
	<path fill="#9C9C9C" d="M259.154,70.043h0.839l2.565,7.566l2.554-7.566h0.84l-2.956,8.512h-0.887L259.154,70.043z"/>
	<path fill="#9C9C9C" d="M266.343,78.555l3.346-8.512h0.91l3.263,8.512h-0.828l-0.98-2.672h-3.878l-1.005,2.672H266.343z    M268.446,75.197h3.334l-1.667-4.469L268.446,75.197z"/>
	<path fill="#9C9C9C" d="M275.8,74.689v3.866l-0.805-0.012v-8.5h3.334c0.938,0,1.655,0.175,2.152,0.526   c0.496,0.351,0.744,0.92,0.744,1.708c0,0.536-0.108,0.961-0.325,1.276c-0.217,0.315-0.569,0.583-1.058,0.804   c0.252,0.087,0.449,0.213,0.591,0.378s0.248,0.354,0.319,0.567s0.116,0.438,0.136,0.674s0.033,0.465,0.042,0.686   c0.008,0.323,0.021,0.591,0.041,0.804c0.02,0.212,0.043,0.386,0.071,0.52c0.027,0.134,0.061,0.238,0.1,0.313   c0.04,0.075,0.087,0.132,0.143,0.172v0.071l-0.887,0.012c-0.087-0.142-0.148-0.339-0.184-0.591   c-0.035-0.252-0.063-0.516-0.083-0.792s-0.035-0.543-0.047-0.804s-0.033-0.473-0.065-0.639c-0.047-0.229-0.124-0.412-0.23-0.549   c-0.106-0.138-0.234-0.243-0.384-0.313s-0.317-0.118-0.503-0.142c-0.185-0.023-0.376-0.035-0.573-0.035H275.8z M278.306,74.003   c0.3,0,0.577-0.032,0.834-0.095c0.256-0.063,0.479-0.164,0.668-0.302c0.188-0.138,0.338-0.313,0.449-0.526   c0.109-0.213,0.165-0.469,0.165-0.769c0-0.315-0.058-0.575-0.172-0.78c-0.114-0.205-0.268-0.366-0.461-0.484   c-0.192-0.118-0.413-0.201-0.662-0.249c-0.248-0.047-0.506-0.071-0.773-0.071H275.8v3.275H278.306z"/>
	<path fill="#9C9C9C" d="M282.856,78.555v-8.512h3.109c0.552,0,1.007,0.063,1.365,0.189s0.643,0.3,0.852,0.52   c0.209,0.221,0.354,0.475,0.438,0.763s0.124,0.589,0.124,0.904c0,0.473-0.097,0.863-0.29,1.17c-0.193,0.308-0.443,0.55-0.75,0.727   c-0.308,0.177-0.656,0.302-1.047,0.373c-0.39,0.071-0.782,0.106-1.176,0.106h-1.821v3.759H282.856z M285.505,74.109   c0.378,0,0.717-0.023,1.017-0.071s0.554-0.136,0.763-0.266c0.209-0.13,0.37-0.307,0.484-0.532s0.172-0.518,0.172-0.881   c0-0.536-0.176-0.941-0.526-1.218c-0.351-0.275-0.908-0.414-1.673-0.414h-2.081v3.381H285.505z"/>
</g>
<g>
	<rect x="165.428" y="35.947" fill="#4F4F4F" width="16.452" height="3.164"/>
	<path fill="#4F4F4F" d="M201.267,34.383c-0.202-1.553-0.549-3.089-1.042-4.606c-0.494-1.517-1.161-2.961-2.002-4.333   c-0.842-1.371-1.92-2.531-3.235-3.482c-0.915-0.658-1.856-1.188-2.825-1.59c-0.969-0.402-1.965-0.704-2.988-0.905   c-1.024-0.201-2.066-0.329-3.126-0.384c-1.061-0.055-2.139-0.082-3.235-0.082h-13.491v13.913h3.728V22.181h8.94   c1.645,0,3.271,0.092,4.881,0.274c1.608,0.183,2.998,0.585,4.168,1.207c1.39,0.732,2.522,1.655,3.4,2.769   c0.877,1.116,1.571,2.34,2.084,3.674c0.512,1.335,0.858,2.742,1.042,4.223c0.183,1.481,0.274,2.934,0.274,4.359   c0,1.354-0.102,2.762-0.302,4.223c-0.201,1.463-0.549,2.861-1.042,4.196c-0.494,1.335-1.161,2.569-2.002,3.702   c-0.842,1.133-1.919,2.029-3.235,2.687c-1.536,0.805-3.044,1.308-4.524,1.509c-1.48,0.201-3.062,0.301-4.744,0.301h-8.94V42.143   h-3.728v16.343h13.491c1.315,0,2.613-0.065,3.894-0.192c1.279-0.128,2.513-0.365,3.701-0.713c1.188-0.347,2.321-0.831,3.4-1.454   c1.078-0.621,2.074-1.443,2.989-2.467c0.913-0.987,1.673-2.074,2.275-3.264c0.603-1.188,1.088-2.431,1.453-3.729   c0.365-1.298,0.631-2.623,0.796-3.977c0.164-1.352,0.246-2.688,0.246-4.004C201.567,37.372,201.467,35.938,201.267,34.383z"/>
</g>
</svg>