<?xml version="1.0" standalone="no"?>
<!DOCTYPE svg PUBLIC "-//W3C//DTD SVG 20010904//EN"
 "http://www.w3.org/TR/2001/REC-SVG-20010904/DTD/svg10.dtd">
<svg version="1.0" xmlns="http://www.w3.org/2000/svg"
 width="980.000000pt" height="980.000000pt" viewBox="0 0 980.000000 980.000000"
 preserveAspectRatio="xMidYMid meet">

<g transform="translate(0.000000,980.000000) scale(0.100000,-0.100000)"
fill="#000000" stroke="none">
<path d="M773 9785 c-368 -67 -658 -341 -750 -711 -23 -95 -23 -323 0 -418 26
-102 71 -207 128 -299 46 -72 259 -289 1738 -1769 l1686 -1688 -1686 -1687
c-1479 -1481 -1692 -1698 -1738 -1770 -57 -92 -102 -197 -128 -299 -23 -95
-23 -323 0 -418 86 -345 346 -609 684 -697 258 -66 556 -10 777 148 28 20 808
793 1733 1717 l1683 1681 1687 -1686 c1809 -1806 1733 -1735 1910 -1812 308
-136 684 -85 950 128 158 127 269 299 325 502 17 62 21 107 22 223 0 159 -12
226 -64 356 -73 184 8 98 -1819 1927 l-1686 1687 1686 1688 c1476 1477 1692
1697 1735 1767 62 99 98 180 126 282 28 104 31 333 5 437 -97 386 -397 660
-787 717 -155 22 -349 -4 -493 -68 -177 -77 -101 -6 -1910 -1812 l-1687 -1686
-1683 1681 c-925 924 -1705 1697 -1733 1717 -202 144 -471 206 -711 162z"/>
</g>
</svg>
