<svg id="svg" xmlns="http://www.w3.org/2000/svg" xmlns:xlink="http://www.w3.org/1999/xlink" width="400" height="353.31230283911674" viewBox="0, 0, 400,353.31230283911674"><g id="svgg"><path id="path0" d="M177.856 15.599 C 170.747 17.516,164.723 21.184,159.058 27.046 C 155.944 30.269,153.616 31.547,150.857 31.550 C 136.766 31.568,121.467 67.377,129.210 82.217 C 131.727 87.043,133.347 119.215,131.203 121.800 C 126.434 127.546,132.395 160.637,139.388 167.232 C 144.964 172.491,145.965 174.695,147.410 184.896 C 148.971 195.911,150.034 198.623,155.701 206.046 C 160.909 212.870,161.808 217.736,157.659 216.651 C 153.939 215.678,147.541 221.757,140.651 232.811 C 137.484 237.891,134.211 242.322,133.377 242.657 C 128.599 244.576,42.551 277.568,37.678 279.350 C 17.467 286.740,13.880 292.811,13.880 319.626 L 13.880 340.694 198.738 340.694 L 383.596 340.694 383.596 319.823 C 383.596 295.285,383.592 295.275,369.154 285.318 C 352.985 274.167,314.361 256.914,282.650 246.676 C 271.218 242.985,260.961 236.267,255.174 228.680 C 253.390 226.341,249.473 222.737,246.470 220.670 C 239.873 216.131,239.161 211.630,244.284 206.845 C 249.856 201.639,251.849 195.807,254.232 177.732 C 254.898 172.686,255.550 171.642,258.903 170.253 C 267.040 166.882,275.814 126.315,269.206 122.616 C 267.371 121.590,267.290 120.551,268.534 114.036 C 275.698 76.544,266.961 43.698,246.296 30.437 C 226.895 17.988,194.799 11.029,177.856 15.599 " stroke="none" fill="#000000" fill-rule="evenodd"></path></g></svg>